G04 (created by PCBNEW-RS274X (2012-apr-16-27)-stable) date Sun 24 Aug 2014 07:46:07 PM NPT*
G01*
G70*
G90*
%MOIN*%
G04 Gerber Fmt 3.4, Leading zero omitted, Abs format*
%FSLAX34Y34*%
G04 APERTURE LIST*
%ADD10C,0.006000*%
%ADD11C,0.060000*%
%ADD12C,0.106300*%
%ADD13R,0.055000X0.055000*%
%ADD14C,0.055000*%
%ADD15R,0.350000X0.350000*%
%ADD16C,0.070000*%
%ADD17R,0.070000X0.070000*%
%ADD18C,0.066000*%
%ADD19R,0.060000X0.060000*%
%ADD20R,0.062000X0.110000*%
%ADD21O,0.062000X0.110000*%
G04 APERTURE END LIST*
G54D10*
G54D11*
X76650Y-38500D03*
X76650Y-39500D03*
X77437Y-39500D03*
X77437Y-38500D03*
G54D12*
X78500Y-36638D03*
X78500Y-41362D03*
G54D13*
X45500Y-48500D03*
G54D14*
X46500Y-48500D03*
X47500Y-48500D03*
X48500Y-48500D03*
X49500Y-48500D03*
X50500Y-48500D03*
X51500Y-48500D03*
X52500Y-48500D03*
G54D13*
X45500Y-31000D03*
G54D14*
X46500Y-31000D03*
X47500Y-31000D03*
X48500Y-31000D03*
X49500Y-31000D03*
X50500Y-31000D03*
X51500Y-31000D03*
X52500Y-31000D03*
G54D13*
X63500Y-31500D03*
G54D14*
X62500Y-31500D03*
X61500Y-31500D03*
X60500Y-31500D03*
X59500Y-31500D03*
X58500Y-31500D03*
X57500Y-31500D03*
X56500Y-31500D03*
G54D13*
X59500Y-47000D03*
G54D14*
X60500Y-47000D03*
X61500Y-47000D03*
X62500Y-47000D03*
X63500Y-47000D03*
X64500Y-47000D03*
X65500Y-47000D03*
X66500Y-47000D03*
G54D13*
X50500Y-46000D03*
G54D14*
X51500Y-46000D03*
X52500Y-46000D03*
X53500Y-46000D03*
X54500Y-46000D03*
X55500Y-46000D03*
G54D13*
X79000Y-52500D03*
G54D14*
X79000Y-51500D03*
G54D13*
X55000Y-30000D03*
G54D14*
X54000Y-30000D03*
G54D13*
X35500Y-34500D03*
G54D14*
X35500Y-35500D03*
G54D13*
X35500Y-32500D03*
G54D14*
X35500Y-31500D03*
G54D13*
X39000Y-39500D03*
G54D14*
X39000Y-38500D03*
X68500Y-40000D03*
X71500Y-40000D03*
X68500Y-42000D03*
X71500Y-42000D03*
X64500Y-55000D03*
X64500Y-52000D03*
G54D13*
X71000Y-48500D03*
G54D14*
X70000Y-48500D03*
X69000Y-48500D03*
G54D13*
X67500Y-54500D03*
G54D14*
X68500Y-54500D03*
X69500Y-54500D03*
G54D15*
X73000Y-60500D03*
G54D16*
X74000Y-54000D03*
G54D17*
X73000Y-54000D03*
G54D16*
X72000Y-54000D03*
G54D18*
X67000Y-52000D03*
X67000Y-51000D03*
G54D13*
X74000Y-38000D03*
G54D14*
X74000Y-35000D03*
G54D13*
X72500Y-38000D03*
G54D14*
X72500Y-35000D03*
G54D19*
X58000Y-48500D03*
G54D11*
X57000Y-48500D03*
G54D13*
X76500Y-52500D03*
G54D14*
X76500Y-51500D03*
G54D13*
X70000Y-52500D03*
G54D14*
X70000Y-51500D03*
X74000Y-52500D03*
X74000Y-51500D03*
X72000Y-52500D03*
X72000Y-51500D03*
X56000Y-51500D03*
X56000Y-50500D03*
X58500Y-51500D03*
X58500Y-50500D03*
G54D20*
X45500Y-42000D03*
G54D21*
X46500Y-42000D03*
X47500Y-42000D03*
X48500Y-42000D03*
X49500Y-42000D03*
X50500Y-42000D03*
X51500Y-42000D03*
X52500Y-42000D03*
X53500Y-42000D03*
X54500Y-42000D03*
X55500Y-42000D03*
X56500Y-42000D03*
X57500Y-42000D03*
X58500Y-42000D03*
X59500Y-42000D03*
X60500Y-42000D03*
X61500Y-42000D03*
X62500Y-42000D03*
X63500Y-42000D03*
X64500Y-42000D03*
X64500Y-36000D03*
X63500Y-36000D03*
X62500Y-36000D03*
X61500Y-36000D03*
X60500Y-36000D03*
X59500Y-36000D03*
X58500Y-36000D03*
X57500Y-36000D03*
X56500Y-36000D03*
X55500Y-36000D03*
X54500Y-36000D03*
X53500Y-36000D03*
X52500Y-36000D03*
X51500Y-36000D03*
X50500Y-36000D03*
X49500Y-36000D03*
X48500Y-36000D03*
X47500Y-36000D03*
X46500Y-36000D03*
X45500Y-36000D03*
M02*
