G04 (created by PCBNEW-RS274X (2012-apr-16-27)-stable) date Sun 24 Aug 2014 07:46:07 PM NPT*
G01*
G70*
G90*
%MOIN*%
G04 Gerber Fmt 3.4, Leading zero omitted, Abs format*
%FSLAX34Y34*%
G04 APERTURE LIST*
%ADD10C,0.006000*%
%ADD11C,0.060000*%
%ADD12C,0.106300*%
%ADD13R,0.055000X0.055000*%
%ADD14C,0.055000*%
%ADD15R,0.350000X0.350000*%
%ADD16C,0.070000*%
%ADD17R,0.070000X0.070000*%
%ADD18C,0.066000*%
%ADD19R,0.060000X0.060000*%
%ADD20R,0.062000X0.110000*%
%ADD21O,0.062000X0.110000*%
%ADD22C,0.023600*%
%ADD23C,0.010000*%
G04 APERTURE END LIST*
G54D10*
G54D11*
X76650Y-38500D03*
X76650Y-39500D03*
X77437Y-39500D03*
X77437Y-38500D03*
G54D12*
X78500Y-36638D03*
X78500Y-41362D03*
G54D13*
X45500Y-48500D03*
G54D14*
X46500Y-48500D03*
X47500Y-48500D03*
X48500Y-48500D03*
X49500Y-48500D03*
X50500Y-48500D03*
X51500Y-48500D03*
X52500Y-48500D03*
G54D13*
X45500Y-31000D03*
G54D14*
X46500Y-31000D03*
X47500Y-31000D03*
X48500Y-31000D03*
X49500Y-31000D03*
X50500Y-31000D03*
X51500Y-31000D03*
X52500Y-31000D03*
G54D13*
X63500Y-31500D03*
G54D14*
X62500Y-31500D03*
X61500Y-31500D03*
X60500Y-31500D03*
X59500Y-31500D03*
X58500Y-31500D03*
X57500Y-31500D03*
X56500Y-31500D03*
G54D13*
X59500Y-47000D03*
G54D14*
X60500Y-47000D03*
X61500Y-47000D03*
X62500Y-47000D03*
X63500Y-47000D03*
X64500Y-47000D03*
X65500Y-47000D03*
X66500Y-47000D03*
G54D13*
X50500Y-46000D03*
G54D14*
X51500Y-46000D03*
X52500Y-46000D03*
X53500Y-46000D03*
X54500Y-46000D03*
X55500Y-46000D03*
G54D13*
X79000Y-52500D03*
G54D14*
X79000Y-51500D03*
G54D13*
X55000Y-30000D03*
G54D14*
X54000Y-30000D03*
G54D13*
X35500Y-34500D03*
G54D14*
X35500Y-35500D03*
G54D13*
X35500Y-32500D03*
G54D14*
X35500Y-31500D03*
G54D13*
X39000Y-39500D03*
G54D14*
X39000Y-38500D03*
X68500Y-40000D03*
X71500Y-40000D03*
X68500Y-42000D03*
X71500Y-42000D03*
X64500Y-55000D03*
X64500Y-52000D03*
G54D13*
X71000Y-48500D03*
G54D14*
X70000Y-48500D03*
X69000Y-48500D03*
G54D13*
X67500Y-54500D03*
G54D14*
X68500Y-54500D03*
X69500Y-54500D03*
G54D15*
X73000Y-60500D03*
G54D16*
X74000Y-54000D03*
G54D17*
X73000Y-54000D03*
G54D16*
X72000Y-54000D03*
G54D18*
X67000Y-52000D03*
X67000Y-51000D03*
G54D13*
X74000Y-38000D03*
G54D14*
X74000Y-35000D03*
G54D13*
X72500Y-38000D03*
G54D14*
X72500Y-35000D03*
G54D19*
X58000Y-48500D03*
G54D11*
X57000Y-48500D03*
G54D13*
X76500Y-52500D03*
G54D14*
X76500Y-51500D03*
G54D13*
X70000Y-52500D03*
G54D14*
X70000Y-51500D03*
X74000Y-52500D03*
X74000Y-51500D03*
X72000Y-52500D03*
X72000Y-51500D03*
X56000Y-51500D03*
X56000Y-50500D03*
X58500Y-51500D03*
X58500Y-50500D03*
G54D20*
X45500Y-42000D03*
G54D21*
X46500Y-42000D03*
X47500Y-42000D03*
X48500Y-42000D03*
X49500Y-42000D03*
X50500Y-42000D03*
X51500Y-42000D03*
X52500Y-42000D03*
X53500Y-42000D03*
X54500Y-42000D03*
X55500Y-42000D03*
X56500Y-42000D03*
X57500Y-42000D03*
X58500Y-42000D03*
X59500Y-42000D03*
X60500Y-42000D03*
X61500Y-42000D03*
X62500Y-42000D03*
X63500Y-42000D03*
X64500Y-42000D03*
X64500Y-36000D03*
X63500Y-36000D03*
X62500Y-36000D03*
X61500Y-36000D03*
X60500Y-36000D03*
X59500Y-36000D03*
X58500Y-36000D03*
X57500Y-36000D03*
X56500Y-36000D03*
X55500Y-36000D03*
X54500Y-36000D03*
X53500Y-36000D03*
X52500Y-36000D03*
X51500Y-36000D03*
X50500Y-36000D03*
X49500Y-36000D03*
X48500Y-36000D03*
X47500Y-36000D03*
X46500Y-36000D03*
X45500Y-36000D03*
G54D22*
X76500Y-36500D02*
X77500Y-37500D01*
X63000Y-50000D02*
X66000Y-50000D01*
X74000Y-35000D02*
X76000Y-35000D01*
X76000Y-35000D02*
X76500Y-35500D01*
X76500Y-35500D02*
X76500Y-36500D01*
X77500Y-37500D02*
X77500Y-38437D01*
X73000Y-54000D02*
X73000Y-52500D01*
X70000Y-51500D02*
X69500Y-51000D01*
X66000Y-50000D02*
X67000Y-51000D01*
X34500Y-31500D02*
X34000Y-32000D01*
X34000Y-32000D02*
X34000Y-35000D01*
X34000Y-35000D02*
X34500Y-35500D01*
X34500Y-35500D02*
X35500Y-35500D01*
X77500Y-38437D02*
X77437Y-38500D01*
X35500Y-31500D02*
X34500Y-31500D01*
X79000Y-51500D02*
X76500Y-51500D01*
X56000Y-51500D02*
X58500Y-51500D01*
X55500Y-42000D02*
X55500Y-46000D01*
X58500Y-51500D02*
X61500Y-51500D01*
X72500Y-35000D02*
X74000Y-35000D01*
X72000Y-51500D02*
X70000Y-51500D01*
X69500Y-51000D02*
X67000Y-51000D01*
X74000Y-51500D02*
X72000Y-51500D01*
X61500Y-51500D02*
X63000Y-50000D01*
X76500Y-51500D02*
X74000Y-51500D01*
X73000Y-52500D02*
X72000Y-51500D01*
X47500Y-48500D02*
X47500Y-42000D01*
X45500Y-48500D02*
X45500Y-42000D01*
X75500Y-39500D02*
X75000Y-39000D01*
X73000Y-36500D02*
X72500Y-37000D01*
X72500Y-37000D02*
X72500Y-38000D01*
X76650Y-39500D02*
X75500Y-39500D01*
X69500Y-38500D02*
X69500Y-41500D01*
X75000Y-39000D02*
X75000Y-37000D01*
X75000Y-37000D02*
X74500Y-36500D01*
X72500Y-38000D02*
X70000Y-38000D01*
X74500Y-36500D02*
X73000Y-36500D01*
X70000Y-38000D02*
X69500Y-38500D01*
X69500Y-41500D02*
X70000Y-42000D01*
X70000Y-42000D02*
X71500Y-42000D01*
X49500Y-42000D02*
X49500Y-48500D01*
X76500Y-52500D02*
X79000Y-52500D01*
X74000Y-52500D02*
X76500Y-52500D01*
X74000Y-54000D02*
X74000Y-52500D01*
X68500Y-54000D02*
X68500Y-54500D01*
X70000Y-52500D02*
X68500Y-54000D01*
X72000Y-52500D02*
X70000Y-52500D01*
X72000Y-54000D02*
X72000Y-52500D01*
X64500Y-52000D02*
X67000Y-52000D01*
X75500Y-41000D02*
X74000Y-39500D01*
X77437Y-39500D02*
X77437Y-40563D01*
X71500Y-40000D02*
X73500Y-40000D01*
X74000Y-39500D02*
X74000Y-38000D01*
X77437Y-40563D02*
X77000Y-41000D01*
X77000Y-41000D02*
X75500Y-41000D01*
X73500Y-40000D02*
X74000Y-39500D01*
X68500Y-40000D02*
X61500Y-40000D01*
X60500Y-41000D02*
X60500Y-42000D01*
X61500Y-40000D02*
X60500Y-41000D01*
X60500Y-42000D02*
X60500Y-44000D01*
X61500Y-45000D02*
X61500Y-47000D01*
X60500Y-44000D02*
X61500Y-45000D01*
X68500Y-41500D02*
X67500Y-40500D01*
X62500Y-42000D02*
X62500Y-43500D01*
X62500Y-43500D02*
X63500Y-44500D01*
X62500Y-40500D02*
X62500Y-42000D01*
X68500Y-42000D02*
X68500Y-41500D01*
X63500Y-44500D02*
X63500Y-47000D01*
X67500Y-40500D02*
X62500Y-40500D01*
X39000Y-38500D02*
X52500Y-38500D01*
X55500Y-37000D02*
X55500Y-36000D01*
X54000Y-38500D02*
X55500Y-37000D01*
X52500Y-38500D02*
X54000Y-38500D01*
X62500Y-31500D02*
X62500Y-36000D01*
X54000Y-30000D02*
X54000Y-34000D01*
X53500Y-34500D02*
X53500Y-36000D01*
X54000Y-34000D02*
X53500Y-34500D01*
X63500Y-36000D02*
X63500Y-31500D01*
X57000Y-44000D02*
X56500Y-43500D01*
X56500Y-43500D02*
X56500Y-42000D01*
X57000Y-48500D02*
X57000Y-44000D01*
X57000Y-49500D02*
X56000Y-50500D01*
X57000Y-48500D02*
X57000Y-49500D01*
X64500Y-43000D02*
X65500Y-44000D01*
X64500Y-42000D02*
X64500Y-43000D01*
X65500Y-44000D02*
X65500Y-47000D01*
X48500Y-48500D02*
X48500Y-42000D01*
X63500Y-43500D02*
X64500Y-44500D01*
X64500Y-44500D02*
X64500Y-47000D01*
X63500Y-42000D02*
X63500Y-43500D01*
X57500Y-36000D02*
X57500Y-31500D01*
X58500Y-31500D02*
X58500Y-36000D01*
X61500Y-42000D02*
X61500Y-43500D01*
X61500Y-43500D02*
X62500Y-44500D01*
X62500Y-44500D02*
X62500Y-47000D01*
X59500Y-36000D02*
X59500Y-31500D01*
X60500Y-31500D02*
X60500Y-36000D01*
X59500Y-42000D02*
X59500Y-44500D01*
X60500Y-45500D02*
X60500Y-47000D01*
X59500Y-44500D02*
X60500Y-45500D01*
X61500Y-36000D02*
X61500Y-31500D01*
X58500Y-42000D02*
X58500Y-44172D01*
X58500Y-44172D02*
X59500Y-45172D01*
X59500Y-45172D02*
X59500Y-47000D01*
X35500Y-34500D02*
X41000Y-34500D01*
X46500Y-37500D02*
X46500Y-36000D01*
X46000Y-38000D02*
X46500Y-37500D01*
X44500Y-38000D02*
X46000Y-38000D01*
X41000Y-34500D02*
X44500Y-38000D01*
X56500Y-36000D02*
X56500Y-31500D01*
X51500Y-36000D02*
X51500Y-31000D01*
X58000Y-48500D02*
X58000Y-49500D01*
X58000Y-48500D02*
X58000Y-44500D01*
X58000Y-49500D02*
X58500Y-50000D01*
X57500Y-44000D02*
X57500Y-42000D01*
X58000Y-44500D02*
X57500Y-44000D01*
X58500Y-50000D02*
X58500Y-50500D01*
X52500Y-36000D02*
X52500Y-31000D01*
X50500Y-36000D02*
X50500Y-31000D01*
X48500Y-36000D02*
X48500Y-31000D01*
X47500Y-36000D02*
X47500Y-31000D01*
X36500Y-33500D02*
X42500Y-33500D01*
X35500Y-32500D02*
X36500Y-33500D01*
X45000Y-36000D02*
X45500Y-36000D01*
X45500Y-36000D02*
X45500Y-31000D01*
X42500Y-33500D02*
X45000Y-36000D01*
X46500Y-48500D02*
X46500Y-42000D01*
X50500Y-46000D02*
X50500Y-42000D01*
X50500Y-42000D02*
X50500Y-46500D01*
X50500Y-46500D02*
X50500Y-48500D01*
X52500Y-42000D02*
X52500Y-46000D01*
X52500Y-46000D02*
X52500Y-48500D01*
X51500Y-46000D02*
X51500Y-48500D01*
X51500Y-42000D02*
X51500Y-46000D01*
X64500Y-55000D02*
X62000Y-55000D01*
X58500Y-55000D02*
X59000Y-55500D01*
X54500Y-46000D02*
X54500Y-48500D01*
X59000Y-55500D02*
X61500Y-55500D01*
X53000Y-53000D02*
X53500Y-53500D01*
X66000Y-55000D02*
X64500Y-55000D01*
X67500Y-54500D02*
X66500Y-54500D01*
X57500Y-53500D02*
X58500Y-54500D01*
X53500Y-53500D02*
X57500Y-53500D01*
X61500Y-55500D02*
X62000Y-55000D01*
X54500Y-48500D02*
X53000Y-50000D01*
X53000Y-50000D02*
X53000Y-53000D01*
X58500Y-54500D02*
X58500Y-55000D01*
X66500Y-54500D02*
X66000Y-55000D01*
X53500Y-42000D02*
X53500Y-46000D01*
X75500Y-36000D02*
X76000Y-36500D01*
X71500Y-33500D02*
X70500Y-34500D01*
X80000Y-46500D02*
X80000Y-35000D01*
X78000Y-48500D02*
X80000Y-46500D01*
X80000Y-35000D02*
X78500Y-33500D01*
X78500Y-33500D02*
X71500Y-33500D01*
X76000Y-37850D02*
X76650Y-38500D01*
X71000Y-48500D02*
X78000Y-48500D01*
X70500Y-34500D02*
X70500Y-36000D01*
X70500Y-36000D02*
X75500Y-36000D01*
X76000Y-36500D02*
X76000Y-37850D01*
X54500Y-40500D02*
X53500Y-39500D01*
X53500Y-39500D02*
X39000Y-39500D01*
X54500Y-42000D02*
X54500Y-40500D01*
X54500Y-39500D02*
X56000Y-38000D01*
X56000Y-38000D02*
X67000Y-38000D01*
X67000Y-38000D02*
X69000Y-36000D01*
X69000Y-36000D02*
X69000Y-33500D01*
X69000Y-33500D02*
X70000Y-32500D01*
X70000Y-32500D02*
X80000Y-32500D01*
X80000Y-32500D02*
X81500Y-34000D01*
X81500Y-34000D02*
X81500Y-47500D01*
X81500Y-47500D02*
X79000Y-50000D01*
X79000Y-50000D02*
X70000Y-50000D01*
X70000Y-50000D02*
X70000Y-49000D01*
X54500Y-42000D02*
X54500Y-39500D01*
X70000Y-50000D02*
X70000Y-48500D01*
G54D10*
G36*
X91950Y-57950D02*
X81905Y-57950D01*
X81905Y-47500D01*
X81905Y-34000D01*
X81874Y-33845D01*
X81786Y-33714D01*
X81786Y-33713D01*
X80286Y-32214D01*
X80155Y-32126D01*
X80000Y-32095D01*
X70000Y-32095D01*
X69845Y-32126D01*
X69713Y-32214D01*
X68714Y-33214D01*
X68626Y-33345D01*
X68595Y-33500D01*
X68595Y-35832D01*
X66832Y-37595D01*
X56000Y-37595D01*
X55845Y-37626D01*
X55713Y-37714D01*
X54214Y-39214D01*
X54126Y-39345D01*
X54095Y-39500D01*
X54095Y-39522D01*
X53786Y-39214D01*
X53655Y-39126D01*
X53500Y-39095D01*
X39530Y-39095D01*
X39517Y-39063D01*
X39437Y-38982D01*
X39349Y-38945D01*
X39390Y-38905D01*
X52500Y-38905D01*
X54000Y-38905D01*
X54000Y-38904D01*
X54155Y-38874D01*
X54286Y-38786D01*
X55786Y-37287D01*
X55786Y-37286D01*
X55874Y-37155D01*
X55904Y-37000D01*
X55905Y-37000D01*
X55905Y-36679D01*
X55996Y-36588D01*
X55999Y-36579D01*
X56003Y-36587D01*
X56168Y-36752D01*
X56383Y-36842D01*
X56616Y-36842D01*
X56831Y-36753D01*
X56996Y-36588D01*
X56999Y-36579D01*
X57003Y-36587D01*
X57168Y-36752D01*
X57383Y-36842D01*
X57616Y-36842D01*
X57831Y-36753D01*
X57996Y-36588D01*
X57999Y-36579D01*
X58003Y-36587D01*
X58168Y-36752D01*
X58383Y-36842D01*
X58616Y-36842D01*
X58831Y-36753D01*
X58996Y-36588D01*
X58999Y-36579D01*
X59003Y-36587D01*
X59168Y-36752D01*
X59383Y-36842D01*
X59616Y-36842D01*
X59831Y-36753D01*
X59996Y-36588D01*
X59999Y-36579D01*
X60003Y-36587D01*
X60168Y-36752D01*
X60383Y-36842D01*
X60616Y-36842D01*
X60831Y-36753D01*
X60996Y-36588D01*
X60999Y-36579D01*
X61003Y-36587D01*
X61168Y-36752D01*
X61383Y-36842D01*
X61616Y-36842D01*
X61831Y-36753D01*
X61996Y-36588D01*
X61999Y-36579D01*
X62003Y-36587D01*
X62168Y-36752D01*
X62383Y-36842D01*
X62616Y-36842D01*
X62831Y-36753D01*
X62996Y-36588D01*
X62999Y-36579D01*
X63003Y-36587D01*
X63168Y-36752D01*
X63383Y-36842D01*
X63616Y-36842D01*
X63831Y-36753D01*
X63996Y-36588D01*
X63999Y-36579D01*
X64003Y-36587D01*
X64168Y-36752D01*
X64383Y-36842D01*
X64616Y-36842D01*
X64831Y-36753D01*
X64996Y-36588D01*
X65086Y-36373D01*
X65086Y-36140D01*
X65086Y-35628D01*
X64997Y-35413D01*
X64832Y-35248D01*
X64617Y-35158D01*
X64384Y-35158D01*
X64169Y-35247D01*
X64004Y-35412D01*
X64000Y-35420D01*
X63997Y-35413D01*
X63905Y-35321D01*
X63905Y-32030D01*
X63937Y-32017D01*
X64018Y-31937D01*
X64061Y-31832D01*
X64061Y-31718D01*
X64061Y-31168D01*
X64017Y-31063D01*
X63937Y-30982D01*
X63832Y-30939D01*
X63718Y-30939D01*
X63168Y-30939D01*
X63063Y-30983D01*
X62982Y-31063D01*
X62945Y-31150D01*
X62819Y-31024D01*
X62613Y-30938D01*
X62389Y-30938D01*
X62182Y-31023D01*
X62024Y-31181D01*
X62000Y-31238D01*
X61977Y-31182D01*
X61819Y-31024D01*
X61613Y-30938D01*
X61389Y-30938D01*
X61182Y-31023D01*
X61024Y-31181D01*
X61000Y-31238D01*
X60977Y-31182D01*
X60819Y-31024D01*
X60613Y-30938D01*
X60389Y-30938D01*
X60182Y-31023D01*
X60024Y-31181D01*
X60000Y-31238D01*
X59977Y-31182D01*
X59819Y-31024D01*
X59613Y-30938D01*
X59389Y-30938D01*
X59182Y-31023D01*
X59024Y-31181D01*
X59000Y-31238D01*
X58977Y-31182D01*
X58819Y-31024D01*
X58613Y-30938D01*
X58389Y-30938D01*
X58182Y-31023D01*
X58024Y-31181D01*
X58000Y-31238D01*
X57977Y-31182D01*
X57819Y-31024D01*
X57613Y-30938D01*
X57389Y-30938D01*
X57182Y-31023D01*
X57024Y-31181D01*
X57000Y-31238D01*
X56977Y-31182D01*
X56819Y-31024D01*
X56613Y-30938D01*
X56389Y-30938D01*
X56182Y-31023D01*
X56024Y-31181D01*
X55938Y-31387D01*
X55938Y-31611D01*
X56023Y-31818D01*
X56095Y-31890D01*
X56095Y-35321D01*
X56004Y-35412D01*
X56000Y-35420D01*
X55997Y-35413D01*
X55832Y-35248D01*
X55617Y-35158D01*
X55384Y-35158D01*
X55169Y-35247D01*
X55004Y-35412D01*
X54980Y-35468D01*
X54847Y-35314D01*
X54637Y-35218D01*
X54550Y-35265D01*
X54550Y-35900D01*
X54550Y-35950D01*
X54550Y-36050D01*
X54550Y-36100D01*
X54550Y-36735D01*
X54637Y-36782D01*
X54847Y-36686D01*
X54980Y-36531D01*
X55003Y-36587D01*
X55095Y-36679D01*
X55095Y-36832D01*
X53832Y-38095D01*
X52500Y-38095D01*
X46477Y-38095D01*
X46786Y-37786D01*
X46874Y-37655D01*
X46904Y-37500D01*
X46905Y-37500D01*
X46905Y-36679D01*
X46996Y-36588D01*
X46999Y-36579D01*
X47003Y-36587D01*
X47168Y-36752D01*
X47383Y-36842D01*
X47616Y-36842D01*
X47831Y-36753D01*
X47996Y-36588D01*
X47999Y-36579D01*
X48003Y-36587D01*
X48168Y-36752D01*
X48383Y-36842D01*
X48616Y-36842D01*
X48831Y-36753D01*
X48996Y-36588D01*
X48999Y-36579D01*
X49003Y-36587D01*
X49168Y-36752D01*
X49383Y-36842D01*
X49616Y-36842D01*
X49831Y-36753D01*
X49996Y-36588D01*
X49999Y-36579D01*
X50003Y-36587D01*
X50168Y-36752D01*
X50383Y-36842D01*
X50616Y-36842D01*
X50831Y-36753D01*
X50996Y-36588D01*
X50999Y-36579D01*
X51003Y-36587D01*
X51168Y-36752D01*
X51383Y-36842D01*
X51616Y-36842D01*
X51831Y-36753D01*
X51996Y-36588D01*
X51999Y-36579D01*
X52003Y-36587D01*
X52168Y-36752D01*
X52383Y-36842D01*
X52616Y-36842D01*
X52831Y-36753D01*
X52996Y-36588D01*
X52999Y-36579D01*
X53003Y-36587D01*
X53168Y-36752D01*
X53383Y-36842D01*
X53616Y-36842D01*
X53831Y-36753D01*
X53996Y-36588D01*
X54019Y-36531D01*
X54153Y-36686D01*
X54363Y-36782D01*
X54450Y-36735D01*
X54450Y-36100D01*
X54450Y-36050D01*
X54450Y-35950D01*
X54450Y-35900D01*
X54450Y-35265D01*
X54363Y-35218D01*
X54153Y-35314D01*
X54019Y-35468D01*
X53997Y-35413D01*
X53905Y-35321D01*
X53905Y-34667D01*
X54286Y-34286D01*
X54374Y-34155D01*
X54404Y-34000D01*
X54405Y-34000D01*
X54405Y-30390D01*
X54446Y-30348D01*
X54483Y-30437D01*
X54563Y-30518D01*
X54668Y-30561D01*
X54782Y-30561D01*
X55332Y-30561D01*
X55437Y-30517D01*
X55518Y-30437D01*
X55561Y-30332D01*
X55561Y-30218D01*
X55561Y-29668D01*
X55517Y-29563D01*
X55437Y-29482D01*
X55332Y-29439D01*
X55218Y-29439D01*
X54668Y-29439D01*
X54563Y-29483D01*
X54482Y-29563D01*
X54445Y-29650D01*
X54319Y-29524D01*
X54113Y-29438D01*
X53889Y-29438D01*
X53682Y-29523D01*
X53524Y-29681D01*
X53438Y-29887D01*
X53438Y-30111D01*
X53523Y-30318D01*
X53595Y-30390D01*
X53595Y-33833D01*
X53214Y-34214D01*
X53126Y-34345D01*
X53095Y-34500D01*
X53095Y-35321D01*
X53004Y-35412D01*
X53000Y-35420D01*
X52997Y-35413D01*
X52905Y-35321D01*
X52905Y-31390D01*
X52976Y-31319D01*
X53062Y-31113D01*
X53062Y-30889D01*
X52977Y-30682D01*
X52819Y-30524D01*
X52613Y-30438D01*
X52389Y-30438D01*
X52182Y-30523D01*
X52024Y-30681D01*
X52000Y-30738D01*
X51977Y-30682D01*
X51819Y-30524D01*
X51613Y-30438D01*
X51389Y-30438D01*
X51182Y-30523D01*
X51024Y-30681D01*
X51000Y-30738D01*
X50977Y-30682D01*
X50819Y-30524D01*
X50613Y-30438D01*
X50389Y-30438D01*
X50182Y-30523D01*
X50024Y-30681D01*
X50000Y-30738D01*
X49977Y-30682D01*
X49819Y-30524D01*
X49613Y-30438D01*
X49389Y-30438D01*
X49182Y-30523D01*
X49024Y-30681D01*
X49000Y-30738D01*
X48977Y-30682D01*
X48819Y-30524D01*
X48613Y-30438D01*
X48389Y-30438D01*
X48182Y-30523D01*
X48024Y-30681D01*
X48000Y-30738D01*
X47977Y-30682D01*
X47819Y-30524D01*
X47613Y-30438D01*
X47389Y-30438D01*
X47182Y-30523D01*
X47024Y-30681D01*
X47000Y-30738D01*
X46977Y-30682D01*
X46819Y-30524D01*
X46613Y-30438D01*
X46389Y-30438D01*
X46182Y-30523D01*
X46053Y-30651D01*
X46017Y-30563D01*
X45937Y-30482D01*
X45832Y-30439D01*
X45718Y-30439D01*
X45168Y-30439D01*
X45063Y-30483D01*
X44982Y-30563D01*
X44939Y-30668D01*
X44939Y-30782D01*
X44939Y-31332D01*
X44983Y-31437D01*
X45063Y-31518D01*
X45095Y-31531D01*
X45095Y-35321D01*
X45004Y-35412D01*
X44998Y-35425D01*
X42786Y-33214D01*
X42655Y-33126D01*
X42500Y-33095D01*
X36667Y-33095D01*
X36061Y-32488D01*
X36061Y-32168D01*
X36019Y-32067D01*
X36019Y-31574D01*
X36008Y-31370D01*
X35952Y-31233D01*
X35861Y-31210D01*
X35790Y-31281D01*
X35790Y-31139D01*
X35767Y-31048D01*
X35574Y-30981D01*
X35370Y-30992D01*
X35233Y-31048D01*
X35210Y-31139D01*
X35500Y-31429D01*
X35790Y-31139D01*
X35790Y-31281D01*
X35571Y-31500D01*
X35861Y-31790D01*
X35952Y-31767D01*
X36019Y-31574D01*
X36019Y-32067D01*
X36017Y-32063D01*
X35937Y-31982D01*
X35832Y-31939D01*
X35770Y-31939D01*
X35790Y-31861D01*
X35500Y-31571D01*
X35429Y-31642D01*
X35429Y-31500D01*
X35139Y-31210D01*
X35048Y-31233D01*
X34981Y-31426D01*
X34992Y-31630D01*
X35048Y-31767D01*
X35139Y-31790D01*
X35429Y-31500D01*
X35429Y-31642D01*
X35210Y-31861D01*
X35229Y-31939D01*
X35168Y-31939D01*
X35063Y-31983D01*
X34982Y-32063D01*
X34939Y-32168D01*
X34939Y-32282D01*
X34939Y-32832D01*
X34983Y-32937D01*
X35063Y-33018D01*
X35168Y-33061D01*
X35282Y-33061D01*
X35488Y-33061D01*
X36213Y-33786D01*
X36214Y-33786D01*
X36345Y-33874D01*
X36500Y-33905D01*
X42332Y-33905D01*
X44713Y-36286D01*
X44714Y-36286D01*
X44845Y-36374D01*
X44921Y-36389D01*
X45003Y-36587D01*
X45168Y-36752D01*
X45383Y-36842D01*
X45616Y-36842D01*
X45831Y-36753D01*
X45996Y-36588D01*
X45999Y-36579D01*
X46003Y-36587D01*
X46095Y-36679D01*
X46095Y-37333D01*
X45833Y-37595D01*
X44667Y-37595D01*
X41286Y-34214D01*
X41155Y-34126D01*
X41000Y-34095D01*
X36030Y-34095D01*
X36017Y-34063D01*
X35937Y-33982D01*
X35832Y-33939D01*
X35718Y-33939D01*
X35168Y-33939D01*
X35063Y-33983D01*
X34982Y-34063D01*
X34939Y-34168D01*
X34939Y-34282D01*
X34939Y-34832D01*
X34983Y-34937D01*
X35063Y-35018D01*
X35168Y-35061D01*
X35229Y-35061D01*
X35210Y-35139D01*
X35500Y-35429D01*
X35790Y-35139D01*
X35770Y-35061D01*
X35832Y-35061D01*
X35937Y-35017D01*
X36018Y-34937D01*
X36031Y-34905D01*
X40832Y-34905D01*
X44022Y-38095D01*
X39390Y-38095D01*
X39319Y-38024D01*
X39113Y-37938D01*
X38889Y-37938D01*
X38682Y-38023D01*
X38524Y-38181D01*
X38438Y-38387D01*
X38438Y-38611D01*
X38523Y-38818D01*
X38651Y-38946D01*
X38563Y-38983D01*
X38482Y-39063D01*
X38439Y-39168D01*
X38439Y-39282D01*
X38439Y-39832D01*
X38483Y-39937D01*
X38563Y-40018D01*
X38668Y-40061D01*
X38782Y-40061D01*
X39332Y-40061D01*
X39437Y-40017D01*
X39518Y-39937D01*
X39531Y-39905D01*
X53332Y-39905D01*
X54095Y-40667D01*
X54095Y-41321D01*
X54004Y-41412D01*
X54000Y-41420D01*
X53997Y-41413D01*
X53832Y-41248D01*
X53617Y-41158D01*
X53384Y-41158D01*
X53169Y-41247D01*
X53004Y-41412D01*
X53000Y-41420D01*
X52997Y-41413D01*
X52832Y-41248D01*
X52617Y-41158D01*
X52384Y-41158D01*
X52169Y-41247D01*
X52004Y-41412D01*
X52000Y-41420D01*
X51997Y-41413D01*
X51832Y-41248D01*
X51617Y-41158D01*
X51384Y-41158D01*
X51169Y-41247D01*
X51004Y-41412D01*
X51000Y-41420D01*
X50997Y-41413D01*
X50832Y-41248D01*
X50617Y-41158D01*
X50384Y-41158D01*
X50169Y-41247D01*
X50004Y-41412D01*
X50000Y-41420D01*
X49997Y-41413D01*
X49832Y-41248D01*
X49617Y-41158D01*
X49384Y-41158D01*
X49169Y-41247D01*
X49004Y-41412D01*
X49000Y-41420D01*
X48997Y-41413D01*
X48832Y-41248D01*
X48617Y-41158D01*
X48384Y-41158D01*
X48169Y-41247D01*
X48004Y-41412D01*
X48000Y-41420D01*
X47997Y-41413D01*
X47832Y-41248D01*
X47617Y-41158D01*
X47384Y-41158D01*
X47169Y-41247D01*
X47004Y-41412D01*
X47000Y-41420D01*
X46997Y-41413D01*
X46832Y-41248D01*
X46617Y-41158D01*
X46384Y-41158D01*
X46169Y-41247D01*
X46074Y-41341D01*
X46052Y-41288D01*
X45972Y-41207D01*
X45867Y-41164D01*
X45753Y-41164D01*
X45133Y-41164D01*
X45028Y-41208D01*
X44947Y-41288D01*
X44904Y-41393D01*
X44904Y-41507D01*
X44904Y-42607D01*
X44948Y-42712D01*
X45028Y-42793D01*
X45095Y-42820D01*
X45095Y-47969D01*
X45063Y-47983D01*
X44982Y-48063D01*
X44939Y-48168D01*
X44939Y-48282D01*
X44939Y-48832D01*
X44983Y-48937D01*
X45063Y-49018D01*
X45168Y-49061D01*
X45282Y-49061D01*
X45832Y-49061D01*
X45937Y-49017D01*
X46018Y-48937D01*
X46054Y-48849D01*
X46181Y-48976D01*
X46387Y-49062D01*
X46611Y-49062D01*
X46818Y-48977D01*
X46976Y-48819D01*
X46999Y-48761D01*
X47023Y-48818D01*
X47181Y-48976D01*
X47387Y-49062D01*
X47611Y-49062D01*
X47818Y-48977D01*
X47976Y-48819D01*
X47999Y-48761D01*
X48023Y-48818D01*
X48181Y-48976D01*
X48387Y-49062D01*
X48611Y-49062D01*
X48818Y-48977D01*
X48976Y-48819D01*
X48999Y-48761D01*
X49023Y-48818D01*
X49181Y-48976D01*
X49387Y-49062D01*
X49611Y-49062D01*
X49818Y-48977D01*
X49976Y-48819D01*
X49999Y-48761D01*
X50023Y-48818D01*
X50181Y-48976D01*
X50387Y-49062D01*
X50611Y-49062D01*
X50818Y-48977D01*
X50976Y-48819D01*
X50999Y-48761D01*
X51023Y-48818D01*
X51181Y-48976D01*
X51387Y-49062D01*
X51611Y-49062D01*
X51818Y-48977D01*
X51976Y-48819D01*
X51999Y-48761D01*
X52023Y-48818D01*
X52181Y-48976D01*
X52387Y-49062D01*
X52611Y-49062D01*
X52818Y-48977D01*
X52976Y-48819D01*
X53062Y-48613D01*
X53062Y-48389D01*
X52977Y-48182D01*
X52905Y-48110D01*
X52905Y-46390D01*
X52976Y-46319D01*
X52999Y-46261D01*
X53023Y-46318D01*
X53181Y-46476D01*
X53387Y-46562D01*
X53611Y-46562D01*
X53818Y-46477D01*
X53976Y-46319D01*
X53999Y-46261D01*
X54023Y-46318D01*
X54095Y-46390D01*
X54095Y-48332D01*
X52714Y-49714D01*
X52626Y-49845D01*
X52595Y-50000D01*
X52595Y-53000D01*
X52626Y-53155D01*
X52714Y-53286D01*
X53214Y-53786D01*
X53345Y-53874D01*
X53500Y-53905D01*
X57332Y-53905D01*
X58095Y-54667D01*
X58095Y-55000D01*
X58126Y-55155D01*
X58214Y-55286D01*
X58714Y-55786D01*
X58845Y-55874D01*
X59000Y-55905D01*
X61500Y-55905D01*
X61500Y-55904D01*
X61655Y-55874D01*
X61786Y-55786D01*
X62167Y-55405D01*
X64110Y-55405D01*
X64181Y-55476D01*
X64387Y-55562D01*
X64611Y-55562D01*
X64818Y-55477D01*
X64890Y-55405D01*
X66000Y-55405D01*
X66000Y-55404D01*
X66155Y-55374D01*
X66286Y-55286D01*
X66667Y-54905D01*
X66969Y-54905D01*
X66983Y-54937D01*
X67063Y-55018D01*
X67168Y-55061D01*
X67282Y-55061D01*
X67832Y-55061D01*
X67937Y-55017D01*
X68018Y-54937D01*
X68054Y-54849D01*
X68181Y-54976D01*
X68387Y-55062D01*
X68611Y-55062D01*
X68818Y-54977D01*
X68976Y-54819D01*
X68999Y-54761D01*
X69023Y-54818D01*
X69181Y-54976D01*
X69387Y-55062D01*
X69611Y-55062D01*
X69818Y-54977D01*
X69976Y-54819D01*
X70062Y-54613D01*
X70062Y-54389D01*
X69977Y-54182D01*
X69819Y-54024D01*
X69613Y-53938D01*
X69389Y-53938D01*
X69182Y-54023D01*
X69024Y-54181D01*
X69000Y-54238D01*
X68977Y-54182D01*
X68933Y-54138D01*
X70011Y-53061D01*
X70332Y-53061D01*
X70437Y-53017D01*
X70518Y-52937D01*
X70531Y-52905D01*
X71595Y-52905D01*
X71595Y-53504D01*
X71460Y-53639D01*
X71363Y-53873D01*
X71363Y-54126D01*
X71460Y-54360D01*
X71639Y-54540D01*
X71873Y-54637D01*
X72126Y-54637D01*
X72360Y-54540D01*
X72430Y-54470D01*
X72439Y-54491D01*
X72509Y-54561D01*
X72600Y-54599D01*
X72699Y-54599D01*
X72888Y-54600D01*
X72950Y-54538D01*
X72950Y-54100D01*
X72950Y-54050D01*
X72950Y-53950D01*
X72950Y-53900D01*
X72950Y-53462D01*
X72888Y-53400D01*
X72699Y-53401D01*
X72600Y-53401D01*
X72509Y-53439D01*
X72439Y-53509D01*
X72430Y-53529D01*
X72405Y-53504D01*
X72405Y-52890D01*
X72476Y-52819D01*
X72562Y-52613D01*
X72562Y-52389D01*
X72519Y-52284D01*
X72519Y-51574D01*
X72508Y-51370D01*
X72452Y-51233D01*
X72361Y-51210D01*
X72290Y-51281D01*
X72290Y-51139D01*
X72267Y-51048D01*
X72074Y-50981D01*
X71870Y-50992D01*
X71733Y-51048D01*
X71710Y-51139D01*
X72000Y-51429D01*
X72290Y-51139D01*
X72290Y-51281D01*
X72071Y-51500D01*
X72361Y-51790D01*
X72452Y-51767D01*
X72519Y-51574D01*
X72519Y-52284D01*
X72477Y-52182D01*
X72319Y-52024D01*
X72206Y-51976D01*
X72267Y-51952D01*
X72290Y-51861D01*
X72000Y-51571D01*
X71929Y-51642D01*
X71929Y-51500D01*
X71639Y-51210D01*
X71548Y-51233D01*
X71481Y-51426D01*
X71492Y-51630D01*
X71548Y-51767D01*
X71639Y-51790D01*
X71929Y-51500D01*
X71929Y-51642D01*
X71710Y-51861D01*
X71733Y-51952D01*
X71799Y-51974D01*
X71682Y-52023D01*
X71610Y-52095D01*
X70530Y-52095D01*
X70519Y-52067D01*
X70519Y-51574D01*
X70508Y-51370D01*
X70452Y-51233D01*
X70361Y-51210D01*
X70290Y-51281D01*
X70290Y-51139D01*
X70267Y-51048D01*
X70074Y-50981D01*
X69870Y-50992D01*
X69733Y-51048D01*
X69710Y-51139D01*
X70000Y-51429D01*
X70290Y-51139D01*
X70290Y-51281D01*
X70071Y-51500D01*
X70361Y-51790D01*
X70452Y-51767D01*
X70519Y-51574D01*
X70519Y-52067D01*
X70517Y-52063D01*
X70437Y-51982D01*
X70332Y-51939D01*
X70270Y-51939D01*
X70290Y-51861D01*
X70000Y-51571D01*
X69929Y-51642D01*
X69929Y-51500D01*
X69639Y-51210D01*
X69548Y-51233D01*
X69481Y-51426D01*
X69492Y-51630D01*
X69548Y-51767D01*
X69639Y-51790D01*
X69929Y-51500D01*
X69929Y-51642D01*
X69710Y-51861D01*
X69729Y-51939D01*
X69668Y-51939D01*
X69563Y-51983D01*
X69482Y-52063D01*
X69439Y-52168D01*
X69439Y-52282D01*
X69439Y-52488D01*
X68214Y-53714D01*
X68126Y-53845D01*
X68095Y-54000D01*
X68095Y-54110D01*
X68053Y-54151D01*
X68017Y-54063D01*
X67937Y-53982D01*
X67832Y-53939D01*
X67718Y-53939D01*
X67617Y-53939D01*
X67617Y-52123D01*
X67617Y-51878D01*
X67573Y-51771D01*
X67573Y-51086D01*
X67562Y-50861D01*
X67496Y-50702D01*
X67400Y-50671D01*
X67329Y-50742D01*
X67329Y-50600D01*
X67298Y-50504D01*
X67086Y-50427D01*
X66861Y-50438D01*
X66702Y-50504D01*
X66671Y-50600D01*
X67000Y-50929D01*
X67329Y-50600D01*
X67329Y-50742D01*
X67071Y-51000D01*
X67400Y-51329D01*
X67496Y-51298D01*
X67573Y-51086D01*
X67573Y-51771D01*
X67523Y-51651D01*
X67350Y-51477D01*
X67309Y-51460D01*
X67329Y-51400D01*
X67000Y-51071D01*
X66929Y-51142D01*
X66929Y-51000D01*
X66600Y-50671D01*
X66504Y-50702D01*
X66427Y-50914D01*
X66438Y-51139D01*
X66504Y-51298D01*
X66600Y-51329D01*
X66929Y-51000D01*
X66929Y-51142D01*
X66671Y-51400D01*
X66690Y-51460D01*
X66651Y-51477D01*
X66532Y-51595D01*
X64890Y-51595D01*
X64819Y-51524D01*
X64613Y-51438D01*
X64389Y-51438D01*
X64182Y-51523D01*
X64024Y-51681D01*
X63938Y-51887D01*
X63938Y-52111D01*
X64023Y-52318D01*
X64181Y-52476D01*
X64387Y-52562D01*
X64611Y-52562D01*
X64818Y-52477D01*
X64890Y-52405D01*
X66532Y-52405D01*
X66650Y-52523D01*
X66877Y-52617D01*
X67122Y-52617D01*
X67349Y-52523D01*
X67523Y-52350D01*
X67617Y-52123D01*
X67617Y-53939D01*
X67168Y-53939D01*
X67063Y-53983D01*
X66982Y-54063D01*
X66968Y-54095D01*
X66500Y-54095D01*
X66345Y-54126D01*
X66214Y-54214D01*
X65833Y-54595D01*
X64890Y-54595D01*
X64819Y-54524D01*
X64613Y-54438D01*
X64389Y-54438D01*
X64182Y-54523D01*
X64110Y-54595D01*
X62000Y-54595D01*
X61845Y-54626D01*
X61714Y-54714D01*
X61333Y-55095D01*
X59167Y-55095D01*
X59019Y-54947D01*
X59019Y-51574D01*
X59008Y-51370D01*
X58952Y-51233D01*
X58861Y-51210D01*
X58571Y-51500D01*
X58861Y-51790D01*
X58952Y-51767D01*
X59019Y-51574D01*
X59019Y-54947D01*
X58905Y-54833D01*
X58905Y-54500D01*
X58874Y-54345D01*
X58790Y-54219D01*
X58790Y-51861D01*
X58500Y-51571D01*
X58429Y-51642D01*
X58429Y-51500D01*
X58139Y-51210D01*
X58048Y-51233D01*
X57981Y-51426D01*
X57992Y-51630D01*
X58048Y-51767D01*
X58139Y-51790D01*
X58429Y-51500D01*
X58429Y-51642D01*
X58210Y-51861D01*
X58233Y-51952D01*
X58426Y-52019D01*
X58630Y-52008D01*
X58767Y-51952D01*
X58790Y-51861D01*
X58790Y-54219D01*
X58786Y-54214D01*
X58786Y-54213D01*
X57786Y-53214D01*
X57655Y-53126D01*
X57500Y-53095D01*
X56519Y-53095D01*
X56519Y-51574D01*
X56508Y-51370D01*
X56452Y-51233D01*
X56361Y-51210D01*
X56071Y-51500D01*
X56361Y-51790D01*
X56452Y-51767D01*
X56519Y-51574D01*
X56519Y-53095D01*
X56290Y-53095D01*
X56290Y-51861D01*
X56000Y-51571D01*
X55929Y-51642D01*
X55929Y-51500D01*
X55639Y-51210D01*
X55548Y-51233D01*
X55481Y-51426D01*
X55492Y-51630D01*
X55548Y-51767D01*
X55639Y-51790D01*
X55929Y-51500D01*
X55929Y-51642D01*
X55710Y-51861D01*
X55733Y-51952D01*
X55926Y-52019D01*
X56130Y-52008D01*
X56267Y-51952D01*
X56290Y-51861D01*
X56290Y-53095D01*
X53667Y-53095D01*
X53405Y-52833D01*
X53405Y-50167D01*
X54786Y-48787D01*
X54786Y-48786D01*
X54874Y-48655D01*
X54904Y-48500D01*
X54905Y-48500D01*
X54905Y-46390D01*
X54976Y-46319D01*
X55023Y-46206D01*
X55048Y-46267D01*
X55139Y-46290D01*
X55429Y-46000D01*
X55139Y-45710D01*
X55048Y-45733D01*
X55025Y-45799D01*
X54977Y-45682D01*
X54819Y-45524D01*
X54613Y-45438D01*
X54389Y-45438D01*
X54182Y-45523D01*
X54024Y-45681D01*
X54000Y-45738D01*
X53977Y-45682D01*
X53905Y-45610D01*
X53905Y-42679D01*
X53996Y-42588D01*
X53999Y-42579D01*
X54003Y-42587D01*
X54168Y-42752D01*
X54383Y-42842D01*
X54616Y-42842D01*
X54831Y-42753D01*
X54996Y-42588D01*
X55019Y-42531D01*
X55153Y-42686D01*
X55363Y-42782D01*
X55450Y-42735D01*
X55450Y-42100D01*
X55450Y-42050D01*
X55450Y-41950D01*
X55450Y-41900D01*
X55450Y-41265D01*
X55363Y-41218D01*
X55153Y-41314D01*
X55019Y-41468D01*
X54997Y-41413D01*
X54905Y-41321D01*
X54905Y-40500D01*
X54905Y-39667D01*
X56167Y-38405D01*
X67000Y-38405D01*
X67000Y-38404D01*
X67155Y-38374D01*
X67286Y-38286D01*
X69286Y-36287D01*
X69286Y-36286D01*
X69374Y-36155D01*
X69404Y-36000D01*
X69405Y-36000D01*
X69405Y-33667D01*
X70167Y-32905D01*
X79832Y-32905D01*
X81095Y-34167D01*
X81095Y-47332D01*
X78832Y-49595D01*
X70405Y-49595D01*
X70405Y-49000D01*
X70405Y-48890D01*
X70446Y-48848D01*
X70483Y-48937D01*
X70563Y-49018D01*
X70668Y-49061D01*
X70782Y-49061D01*
X71332Y-49061D01*
X71437Y-49017D01*
X71518Y-48937D01*
X71531Y-48905D01*
X78000Y-48905D01*
X78000Y-48904D01*
X78155Y-48874D01*
X78286Y-48786D01*
X80286Y-46787D01*
X80286Y-46786D01*
X80374Y-46655D01*
X80404Y-46500D01*
X80405Y-46500D01*
X80405Y-35000D01*
X80374Y-34845D01*
X80286Y-34714D01*
X80286Y-34713D01*
X78786Y-33214D01*
X78655Y-33126D01*
X78500Y-33095D01*
X71500Y-33095D01*
X71345Y-33126D01*
X71213Y-33214D01*
X70214Y-34214D01*
X70126Y-34345D01*
X70095Y-34500D01*
X70095Y-36000D01*
X70126Y-36155D01*
X70214Y-36286D01*
X70345Y-36374D01*
X70500Y-36405D01*
X72523Y-36405D01*
X72214Y-36714D01*
X72126Y-36845D01*
X72095Y-37000D01*
X72095Y-37469D01*
X72063Y-37483D01*
X71982Y-37563D01*
X71968Y-37595D01*
X70000Y-37595D01*
X69845Y-37626D01*
X69714Y-37714D01*
X69214Y-38214D01*
X69126Y-38345D01*
X69095Y-38500D01*
X69095Y-41500D01*
X69126Y-41655D01*
X69214Y-41786D01*
X69714Y-42286D01*
X69845Y-42374D01*
X70000Y-42405D01*
X71110Y-42405D01*
X71181Y-42476D01*
X71387Y-42562D01*
X71611Y-42562D01*
X71818Y-42477D01*
X71976Y-42319D01*
X72062Y-42113D01*
X72062Y-41889D01*
X71977Y-41682D01*
X71819Y-41524D01*
X71613Y-41438D01*
X71389Y-41438D01*
X71182Y-41523D01*
X71110Y-41595D01*
X70167Y-41595D01*
X69905Y-41333D01*
X69905Y-38667D01*
X70167Y-38405D01*
X71969Y-38405D01*
X71983Y-38437D01*
X72063Y-38518D01*
X72168Y-38561D01*
X72282Y-38561D01*
X72832Y-38561D01*
X72937Y-38517D01*
X73018Y-38437D01*
X73061Y-38332D01*
X73061Y-38218D01*
X73061Y-37668D01*
X73017Y-37563D01*
X72937Y-37482D01*
X72905Y-37468D01*
X72905Y-37167D01*
X73167Y-36905D01*
X74333Y-36905D01*
X74595Y-37167D01*
X74595Y-39000D01*
X74626Y-39155D01*
X74714Y-39286D01*
X75214Y-39786D01*
X75345Y-39874D01*
X75500Y-39905D01*
X76225Y-39905D01*
X76317Y-39997D01*
X76533Y-40087D01*
X76766Y-40087D01*
X76982Y-39998D01*
X77032Y-39948D01*
X77032Y-40396D01*
X76833Y-40595D01*
X75667Y-40595D01*
X74405Y-39332D01*
X74405Y-38530D01*
X74437Y-38517D01*
X74518Y-38437D01*
X74561Y-38332D01*
X74561Y-38218D01*
X74561Y-37668D01*
X74517Y-37563D01*
X74437Y-37482D01*
X74332Y-37439D01*
X74218Y-37439D01*
X73668Y-37439D01*
X73563Y-37483D01*
X73482Y-37563D01*
X73439Y-37668D01*
X73439Y-37782D01*
X73439Y-38332D01*
X73483Y-38437D01*
X73563Y-38518D01*
X73595Y-38531D01*
X73595Y-39333D01*
X73333Y-39595D01*
X71890Y-39595D01*
X71819Y-39524D01*
X71613Y-39438D01*
X71389Y-39438D01*
X71182Y-39523D01*
X71024Y-39681D01*
X70938Y-39887D01*
X70938Y-40111D01*
X71023Y-40318D01*
X71181Y-40476D01*
X71387Y-40562D01*
X71611Y-40562D01*
X71818Y-40477D01*
X71890Y-40405D01*
X73500Y-40405D01*
X73500Y-40404D01*
X73655Y-40374D01*
X73786Y-40286D01*
X73999Y-40072D01*
X75213Y-41286D01*
X75214Y-41286D01*
X75345Y-41374D01*
X75500Y-41405D01*
X77000Y-41405D01*
X77000Y-41404D01*
X77155Y-41374D01*
X77286Y-41286D01*
X77723Y-40849D01*
X77811Y-40718D01*
X77841Y-40563D01*
X77842Y-40563D01*
X77842Y-39925D01*
X77934Y-39833D01*
X78024Y-39617D01*
X78024Y-39384D01*
X77980Y-39277D01*
X77980Y-38579D01*
X77969Y-38366D01*
X77909Y-38219D01*
X77815Y-38192D01*
X77745Y-38262D01*
X77508Y-38500D01*
X77815Y-38808D01*
X77909Y-38781D01*
X77980Y-38579D01*
X77980Y-39277D01*
X77935Y-39168D01*
X77770Y-39003D01*
X77706Y-38976D01*
X77718Y-38972D01*
X77745Y-38878D01*
X77472Y-38606D01*
X77437Y-38571D01*
X77366Y-38500D01*
X77437Y-38429D01*
X77472Y-38394D01*
X77745Y-38122D01*
X77718Y-38028D01*
X77516Y-37957D01*
X77303Y-37968D01*
X77156Y-38028D01*
X77144Y-38066D01*
X77112Y-38034D01*
X77063Y-38083D01*
X76983Y-38003D01*
X76767Y-37913D01*
X76635Y-37913D01*
X76405Y-37682D01*
X76405Y-36500D01*
X76374Y-36345D01*
X76286Y-36214D01*
X75786Y-35714D01*
X75655Y-35626D01*
X75500Y-35595D01*
X74519Y-35595D01*
X74519Y-35074D01*
X74508Y-34870D01*
X74452Y-34733D01*
X74361Y-34710D01*
X74290Y-34781D01*
X74290Y-34639D01*
X74267Y-34548D01*
X74074Y-34481D01*
X73870Y-34492D01*
X73733Y-34548D01*
X73710Y-34639D01*
X74000Y-34929D01*
X74290Y-34639D01*
X74290Y-34781D01*
X74071Y-35000D01*
X74361Y-35290D01*
X74452Y-35267D01*
X74519Y-35074D01*
X74519Y-35595D01*
X74290Y-35595D01*
X74290Y-35361D01*
X74000Y-35071D01*
X73929Y-35142D01*
X73929Y-35000D01*
X73639Y-34710D01*
X73548Y-34733D01*
X73481Y-34926D01*
X73492Y-35130D01*
X73548Y-35267D01*
X73639Y-35290D01*
X73929Y-35000D01*
X73929Y-35142D01*
X73710Y-35361D01*
X73733Y-35452D01*
X73926Y-35519D01*
X74130Y-35508D01*
X74267Y-35452D01*
X74290Y-35361D01*
X74290Y-35595D01*
X73019Y-35595D01*
X73019Y-35074D01*
X73008Y-34870D01*
X72952Y-34733D01*
X72861Y-34710D01*
X72790Y-34781D01*
X72790Y-34639D01*
X72767Y-34548D01*
X72574Y-34481D01*
X72370Y-34492D01*
X72233Y-34548D01*
X72210Y-34639D01*
X72500Y-34929D01*
X72790Y-34639D01*
X72790Y-34781D01*
X72571Y-35000D01*
X72861Y-35290D01*
X72952Y-35267D01*
X73019Y-35074D01*
X73019Y-35595D01*
X72790Y-35595D01*
X72790Y-35361D01*
X72500Y-35071D01*
X72429Y-35142D01*
X72429Y-35000D01*
X72139Y-34710D01*
X72048Y-34733D01*
X71981Y-34926D01*
X71992Y-35130D01*
X72048Y-35267D01*
X72139Y-35290D01*
X72429Y-35000D01*
X72429Y-35142D01*
X72210Y-35361D01*
X72233Y-35452D01*
X72426Y-35519D01*
X72630Y-35508D01*
X72767Y-35452D01*
X72790Y-35361D01*
X72790Y-35595D01*
X70905Y-35595D01*
X70905Y-34667D01*
X71667Y-33905D01*
X78332Y-33905D01*
X79595Y-35167D01*
X79595Y-46332D01*
X79318Y-46609D01*
X79318Y-41525D01*
X79318Y-41200D01*
X79318Y-36801D01*
X79318Y-36476D01*
X79194Y-36175D01*
X78964Y-35945D01*
X78663Y-35820D01*
X78338Y-35820D01*
X78037Y-35944D01*
X77807Y-36174D01*
X77682Y-36475D01*
X77682Y-36800D01*
X77806Y-37101D01*
X78036Y-37331D01*
X78337Y-37456D01*
X78662Y-37456D01*
X78963Y-37332D01*
X79193Y-37102D01*
X79318Y-36801D01*
X79318Y-41200D01*
X79194Y-40899D01*
X78964Y-40669D01*
X78663Y-40544D01*
X78338Y-40544D01*
X78037Y-40668D01*
X77807Y-40898D01*
X77682Y-41199D01*
X77682Y-41524D01*
X77806Y-41825D01*
X78036Y-42055D01*
X78337Y-42180D01*
X78662Y-42180D01*
X78963Y-42056D01*
X79193Y-41826D01*
X79318Y-41525D01*
X79318Y-46609D01*
X77832Y-48095D01*
X71530Y-48095D01*
X71517Y-48063D01*
X71437Y-47982D01*
X71332Y-47939D01*
X71218Y-47939D01*
X70668Y-47939D01*
X70563Y-47983D01*
X70482Y-48063D01*
X70445Y-48150D01*
X70319Y-48024D01*
X70113Y-47938D01*
X69889Y-47938D01*
X69682Y-48023D01*
X69524Y-48181D01*
X69500Y-48238D01*
X69477Y-48182D01*
X69319Y-48024D01*
X69113Y-47938D01*
X69062Y-47938D01*
X69062Y-42113D01*
X69062Y-41889D01*
X68977Y-41682D01*
X68905Y-41610D01*
X68905Y-41500D01*
X68874Y-41345D01*
X68786Y-41214D01*
X68786Y-41213D01*
X67977Y-40405D01*
X68110Y-40405D01*
X68181Y-40476D01*
X68387Y-40562D01*
X68611Y-40562D01*
X68818Y-40477D01*
X68976Y-40319D01*
X69062Y-40113D01*
X69062Y-39889D01*
X68977Y-39682D01*
X68819Y-39524D01*
X68613Y-39438D01*
X68389Y-39438D01*
X68182Y-39523D01*
X68110Y-39595D01*
X61500Y-39595D01*
X61345Y-39626D01*
X61213Y-39714D01*
X60214Y-40714D01*
X60126Y-40845D01*
X60095Y-41000D01*
X60095Y-41321D01*
X60004Y-41412D01*
X60000Y-41420D01*
X59997Y-41413D01*
X59832Y-41248D01*
X59617Y-41158D01*
X59384Y-41158D01*
X59169Y-41247D01*
X59004Y-41412D01*
X59000Y-41420D01*
X58997Y-41413D01*
X58832Y-41248D01*
X58617Y-41158D01*
X58384Y-41158D01*
X58169Y-41247D01*
X58004Y-41412D01*
X58000Y-41420D01*
X57997Y-41413D01*
X57832Y-41248D01*
X57617Y-41158D01*
X57384Y-41158D01*
X57169Y-41247D01*
X57004Y-41412D01*
X57000Y-41420D01*
X56997Y-41413D01*
X56832Y-41248D01*
X56617Y-41158D01*
X56384Y-41158D01*
X56169Y-41247D01*
X56004Y-41412D01*
X55980Y-41468D01*
X55847Y-41314D01*
X55637Y-41218D01*
X55550Y-41265D01*
X55550Y-41900D01*
X55550Y-41950D01*
X55550Y-42050D01*
X55550Y-42100D01*
X55550Y-42735D01*
X55637Y-42782D01*
X55847Y-42686D01*
X55980Y-42531D01*
X56003Y-42587D01*
X56095Y-42679D01*
X56095Y-43500D01*
X56126Y-43655D01*
X56214Y-43786D01*
X56595Y-44167D01*
X56595Y-48075D01*
X56503Y-48167D01*
X56413Y-48383D01*
X56413Y-48616D01*
X56502Y-48832D01*
X56595Y-48925D01*
X56595Y-49332D01*
X56019Y-49908D01*
X56019Y-46074D01*
X56008Y-45870D01*
X55952Y-45733D01*
X55861Y-45710D01*
X55790Y-45781D01*
X55790Y-45639D01*
X55767Y-45548D01*
X55574Y-45481D01*
X55370Y-45492D01*
X55233Y-45548D01*
X55210Y-45639D01*
X55500Y-45929D01*
X55790Y-45639D01*
X55790Y-45781D01*
X55571Y-46000D01*
X55861Y-46290D01*
X55952Y-46267D01*
X56019Y-46074D01*
X56019Y-49908D01*
X55989Y-49938D01*
X55889Y-49938D01*
X55790Y-49978D01*
X55790Y-46361D01*
X55500Y-46071D01*
X55210Y-46361D01*
X55233Y-46452D01*
X55426Y-46519D01*
X55630Y-46508D01*
X55767Y-46452D01*
X55790Y-46361D01*
X55790Y-49978D01*
X55682Y-50023D01*
X55524Y-50181D01*
X55438Y-50387D01*
X55438Y-50611D01*
X55523Y-50818D01*
X55681Y-50976D01*
X55793Y-51023D01*
X55733Y-51048D01*
X55710Y-51139D01*
X56000Y-51429D01*
X56290Y-51139D01*
X56267Y-51048D01*
X56200Y-51025D01*
X56318Y-50977D01*
X56476Y-50819D01*
X56562Y-50613D01*
X56562Y-50510D01*
X57286Y-49787D01*
X57286Y-49786D01*
X57374Y-49655D01*
X57404Y-49500D01*
X57405Y-49500D01*
X57405Y-48925D01*
X57431Y-48898D01*
X57458Y-48962D01*
X57538Y-49043D01*
X57595Y-49066D01*
X57595Y-49500D01*
X57626Y-49655D01*
X57714Y-49786D01*
X58066Y-50138D01*
X58024Y-50181D01*
X57938Y-50387D01*
X57938Y-50611D01*
X58023Y-50818D01*
X58181Y-50976D01*
X58293Y-51023D01*
X58233Y-51048D01*
X58210Y-51139D01*
X58500Y-51429D01*
X58790Y-51139D01*
X58767Y-51048D01*
X58700Y-51025D01*
X58818Y-50977D01*
X58976Y-50819D01*
X59062Y-50613D01*
X59062Y-50389D01*
X58977Y-50182D01*
X58905Y-50110D01*
X58905Y-50000D01*
X58874Y-49845D01*
X58786Y-49714D01*
X58405Y-49333D01*
X58405Y-49065D01*
X58462Y-49042D01*
X58543Y-48962D01*
X58586Y-48857D01*
X58586Y-48743D01*
X58586Y-48143D01*
X58542Y-48038D01*
X58462Y-47957D01*
X58405Y-47933D01*
X58405Y-44649D01*
X59095Y-45339D01*
X59095Y-46469D01*
X59063Y-46483D01*
X58982Y-46563D01*
X58939Y-46668D01*
X58939Y-46782D01*
X58939Y-47332D01*
X58983Y-47437D01*
X59063Y-47518D01*
X59168Y-47561D01*
X59282Y-47561D01*
X59832Y-47561D01*
X59937Y-47517D01*
X60018Y-47437D01*
X60054Y-47349D01*
X60181Y-47476D01*
X60387Y-47562D01*
X60611Y-47562D01*
X60818Y-47477D01*
X60976Y-47319D01*
X60999Y-47261D01*
X61023Y-47318D01*
X61181Y-47476D01*
X61387Y-47562D01*
X61611Y-47562D01*
X61818Y-47477D01*
X61976Y-47319D01*
X61999Y-47261D01*
X62023Y-47318D01*
X62181Y-47476D01*
X62387Y-47562D01*
X62611Y-47562D01*
X62818Y-47477D01*
X62976Y-47319D01*
X62999Y-47261D01*
X63023Y-47318D01*
X63181Y-47476D01*
X63387Y-47562D01*
X63611Y-47562D01*
X63818Y-47477D01*
X63976Y-47319D01*
X63999Y-47261D01*
X64023Y-47318D01*
X64181Y-47476D01*
X64387Y-47562D01*
X64611Y-47562D01*
X64818Y-47477D01*
X64976Y-47319D01*
X64999Y-47261D01*
X65023Y-47318D01*
X65181Y-47476D01*
X65387Y-47562D01*
X65611Y-47562D01*
X65818Y-47477D01*
X65976Y-47319D01*
X65999Y-47261D01*
X66023Y-47318D01*
X66181Y-47476D01*
X66387Y-47562D01*
X66611Y-47562D01*
X66818Y-47477D01*
X66976Y-47319D01*
X67062Y-47113D01*
X67062Y-46889D01*
X66977Y-46682D01*
X66819Y-46524D01*
X66613Y-46438D01*
X66389Y-46438D01*
X66182Y-46523D01*
X66024Y-46681D01*
X66000Y-46738D01*
X65977Y-46682D01*
X65905Y-46610D01*
X65905Y-44000D01*
X65874Y-43845D01*
X65786Y-43714D01*
X65786Y-43713D01*
X64905Y-42832D01*
X64905Y-42679D01*
X64996Y-42588D01*
X65086Y-42373D01*
X65086Y-42140D01*
X65086Y-41628D01*
X64997Y-41413D01*
X64832Y-41248D01*
X64617Y-41158D01*
X64384Y-41158D01*
X64169Y-41247D01*
X64004Y-41412D01*
X64000Y-41420D01*
X63997Y-41413D01*
X63832Y-41248D01*
X63617Y-41158D01*
X63384Y-41158D01*
X63169Y-41247D01*
X63004Y-41412D01*
X63000Y-41420D01*
X62997Y-41413D01*
X62905Y-41321D01*
X62905Y-40905D01*
X67332Y-40905D01*
X68066Y-41638D01*
X68024Y-41681D01*
X67938Y-41887D01*
X67938Y-42111D01*
X68023Y-42318D01*
X68181Y-42476D01*
X68387Y-42562D01*
X68611Y-42562D01*
X68818Y-42477D01*
X68976Y-42319D01*
X69062Y-42113D01*
X69062Y-47938D01*
X68889Y-47938D01*
X68682Y-48023D01*
X68524Y-48181D01*
X68438Y-48387D01*
X68438Y-48611D01*
X68523Y-48818D01*
X68681Y-48976D01*
X68887Y-49062D01*
X69111Y-49062D01*
X69318Y-48977D01*
X69476Y-48819D01*
X69499Y-48761D01*
X69523Y-48818D01*
X69595Y-48890D01*
X69595Y-49000D01*
X69595Y-50000D01*
X69626Y-50155D01*
X69714Y-50286D01*
X69845Y-50374D01*
X70000Y-50405D01*
X79000Y-50405D01*
X79000Y-50404D01*
X79155Y-50374D01*
X79286Y-50286D01*
X81786Y-47787D01*
X81786Y-47786D01*
X81874Y-47655D01*
X81904Y-47500D01*
X81905Y-47500D01*
X81905Y-57950D01*
X79561Y-57950D01*
X79561Y-52832D01*
X79561Y-52718D01*
X79561Y-52168D01*
X79519Y-52067D01*
X79519Y-51574D01*
X79508Y-51370D01*
X79452Y-51233D01*
X79361Y-51210D01*
X79290Y-51281D01*
X79290Y-51139D01*
X79267Y-51048D01*
X79074Y-50981D01*
X78870Y-50992D01*
X78733Y-51048D01*
X78710Y-51139D01*
X79000Y-51429D01*
X79290Y-51139D01*
X79290Y-51281D01*
X79071Y-51500D01*
X79361Y-51790D01*
X79452Y-51767D01*
X79519Y-51574D01*
X79519Y-52067D01*
X79517Y-52063D01*
X79437Y-51982D01*
X79332Y-51939D01*
X79270Y-51939D01*
X79290Y-51861D01*
X79000Y-51571D01*
X78929Y-51642D01*
X78929Y-51500D01*
X78639Y-51210D01*
X78548Y-51233D01*
X78481Y-51426D01*
X78492Y-51630D01*
X78548Y-51767D01*
X78639Y-51790D01*
X78929Y-51500D01*
X78929Y-51642D01*
X78710Y-51861D01*
X78729Y-51939D01*
X78668Y-51939D01*
X78563Y-51983D01*
X78482Y-52063D01*
X78468Y-52095D01*
X77030Y-52095D01*
X77019Y-52067D01*
X77019Y-51574D01*
X77008Y-51370D01*
X76952Y-51233D01*
X76861Y-51210D01*
X76790Y-51281D01*
X76790Y-51139D01*
X76767Y-51048D01*
X76574Y-50981D01*
X76370Y-50992D01*
X76233Y-51048D01*
X76210Y-51139D01*
X76500Y-51429D01*
X76790Y-51139D01*
X76790Y-51281D01*
X76571Y-51500D01*
X76861Y-51790D01*
X76952Y-51767D01*
X77019Y-51574D01*
X77019Y-52067D01*
X77017Y-52063D01*
X76937Y-51982D01*
X76832Y-51939D01*
X76770Y-51939D01*
X76790Y-51861D01*
X76500Y-51571D01*
X76429Y-51642D01*
X76429Y-51500D01*
X76139Y-51210D01*
X76048Y-51233D01*
X75981Y-51426D01*
X75992Y-51630D01*
X76048Y-51767D01*
X76139Y-51790D01*
X76429Y-51500D01*
X76429Y-51642D01*
X76210Y-51861D01*
X76229Y-51939D01*
X76168Y-51939D01*
X76063Y-51983D01*
X75982Y-52063D01*
X75968Y-52095D01*
X74519Y-52095D01*
X74519Y-51574D01*
X74508Y-51370D01*
X74452Y-51233D01*
X74361Y-51210D01*
X74290Y-51281D01*
X74290Y-51139D01*
X74267Y-51048D01*
X74074Y-50981D01*
X73870Y-50992D01*
X73733Y-51048D01*
X73710Y-51139D01*
X74000Y-51429D01*
X74290Y-51139D01*
X74290Y-51281D01*
X74071Y-51500D01*
X74361Y-51790D01*
X74452Y-51767D01*
X74519Y-51574D01*
X74519Y-52095D01*
X74390Y-52095D01*
X74319Y-52024D01*
X74206Y-51976D01*
X74267Y-51952D01*
X74290Y-51861D01*
X74000Y-51571D01*
X73929Y-51642D01*
X73929Y-51500D01*
X73639Y-51210D01*
X73548Y-51233D01*
X73481Y-51426D01*
X73492Y-51630D01*
X73548Y-51767D01*
X73639Y-51790D01*
X73929Y-51500D01*
X73929Y-51642D01*
X73710Y-51861D01*
X73733Y-51952D01*
X73799Y-51974D01*
X73682Y-52023D01*
X73524Y-52181D01*
X73438Y-52387D01*
X73438Y-52611D01*
X73523Y-52818D01*
X73595Y-52890D01*
X73595Y-53504D01*
X73569Y-53529D01*
X73561Y-53509D01*
X73491Y-53439D01*
X73400Y-53401D01*
X73301Y-53401D01*
X73112Y-53400D01*
X73050Y-53462D01*
X73050Y-53900D01*
X73050Y-53950D01*
X73050Y-54050D01*
X73050Y-54100D01*
X73050Y-54538D01*
X73112Y-54600D01*
X73301Y-54599D01*
X73400Y-54599D01*
X73491Y-54561D01*
X73561Y-54491D01*
X73569Y-54470D01*
X73639Y-54540D01*
X73873Y-54637D01*
X74126Y-54637D01*
X74360Y-54540D01*
X74540Y-54361D01*
X74637Y-54127D01*
X74637Y-53874D01*
X74540Y-53640D01*
X74405Y-53504D01*
X74405Y-52905D01*
X75969Y-52905D01*
X75983Y-52937D01*
X76063Y-53018D01*
X76168Y-53061D01*
X76282Y-53061D01*
X76832Y-53061D01*
X76937Y-53017D01*
X77018Y-52937D01*
X77031Y-52905D01*
X78469Y-52905D01*
X78483Y-52937D01*
X78563Y-53018D01*
X78668Y-53061D01*
X78782Y-53061D01*
X79332Y-53061D01*
X79437Y-53017D01*
X79518Y-52937D01*
X79561Y-52832D01*
X79561Y-57950D01*
X36019Y-57950D01*
X36019Y-35574D01*
X36008Y-35370D01*
X35952Y-35233D01*
X35861Y-35210D01*
X35571Y-35500D01*
X35861Y-35790D01*
X35952Y-35767D01*
X36019Y-35574D01*
X36019Y-57950D01*
X35790Y-57950D01*
X35790Y-35861D01*
X35500Y-35571D01*
X35429Y-35642D01*
X35429Y-35500D01*
X35139Y-35210D01*
X35048Y-35233D01*
X34981Y-35426D01*
X34992Y-35630D01*
X35048Y-35767D01*
X35139Y-35790D01*
X35429Y-35500D01*
X35429Y-35642D01*
X35210Y-35861D01*
X35233Y-35952D01*
X35426Y-36019D01*
X35630Y-36008D01*
X35767Y-35952D01*
X35790Y-35861D01*
X35790Y-57950D01*
X29050Y-57950D01*
X29050Y-27550D01*
X91950Y-27050D01*
X91950Y-57950D01*
X91950Y-57950D01*
G37*
G54D23*
X91950Y-57950D02*
X81905Y-57950D01*
X81905Y-47500D01*
X81905Y-34000D01*
X81874Y-33845D01*
X81786Y-33714D01*
X81786Y-33713D01*
X80286Y-32214D01*
X80155Y-32126D01*
X80000Y-32095D01*
X70000Y-32095D01*
X69845Y-32126D01*
X69713Y-32214D01*
X68714Y-33214D01*
X68626Y-33345D01*
X68595Y-33500D01*
X68595Y-35832D01*
X66832Y-37595D01*
X56000Y-37595D01*
X55845Y-37626D01*
X55713Y-37714D01*
X54214Y-39214D01*
X54126Y-39345D01*
X54095Y-39500D01*
X54095Y-39522D01*
X53786Y-39214D01*
X53655Y-39126D01*
X53500Y-39095D01*
X39530Y-39095D01*
X39517Y-39063D01*
X39437Y-38982D01*
X39349Y-38945D01*
X39390Y-38905D01*
X52500Y-38905D01*
X54000Y-38905D01*
X54000Y-38904D01*
X54155Y-38874D01*
X54286Y-38786D01*
X55786Y-37287D01*
X55786Y-37286D01*
X55874Y-37155D01*
X55904Y-37000D01*
X55905Y-37000D01*
X55905Y-36679D01*
X55996Y-36588D01*
X55999Y-36579D01*
X56003Y-36587D01*
X56168Y-36752D01*
X56383Y-36842D01*
X56616Y-36842D01*
X56831Y-36753D01*
X56996Y-36588D01*
X56999Y-36579D01*
X57003Y-36587D01*
X57168Y-36752D01*
X57383Y-36842D01*
X57616Y-36842D01*
X57831Y-36753D01*
X57996Y-36588D01*
X57999Y-36579D01*
X58003Y-36587D01*
X58168Y-36752D01*
X58383Y-36842D01*
X58616Y-36842D01*
X58831Y-36753D01*
X58996Y-36588D01*
X58999Y-36579D01*
X59003Y-36587D01*
X59168Y-36752D01*
X59383Y-36842D01*
X59616Y-36842D01*
X59831Y-36753D01*
X59996Y-36588D01*
X59999Y-36579D01*
X60003Y-36587D01*
X60168Y-36752D01*
X60383Y-36842D01*
X60616Y-36842D01*
X60831Y-36753D01*
X60996Y-36588D01*
X60999Y-36579D01*
X61003Y-36587D01*
X61168Y-36752D01*
X61383Y-36842D01*
X61616Y-36842D01*
X61831Y-36753D01*
X61996Y-36588D01*
X61999Y-36579D01*
X62003Y-36587D01*
X62168Y-36752D01*
X62383Y-36842D01*
X62616Y-36842D01*
X62831Y-36753D01*
X62996Y-36588D01*
X62999Y-36579D01*
X63003Y-36587D01*
X63168Y-36752D01*
X63383Y-36842D01*
X63616Y-36842D01*
X63831Y-36753D01*
X63996Y-36588D01*
X63999Y-36579D01*
X64003Y-36587D01*
X64168Y-36752D01*
X64383Y-36842D01*
X64616Y-36842D01*
X64831Y-36753D01*
X64996Y-36588D01*
X65086Y-36373D01*
X65086Y-36140D01*
X65086Y-35628D01*
X64997Y-35413D01*
X64832Y-35248D01*
X64617Y-35158D01*
X64384Y-35158D01*
X64169Y-35247D01*
X64004Y-35412D01*
X64000Y-35420D01*
X63997Y-35413D01*
X63905Y-35321D01*
X63905Y-32030D01*
X63937Y-32017D01*
X64018Y-31937D01*
X64061Y-31832D01*
X64061Y-31718D01*
X64061Y-31168D01*
X64017Y-31063D01*
X63937Y-30982D01*
X63832Y-30939D01*
X63718Y-30939D01*
X63168Y-30939D01*
X63063Y-30983D01*
X62982Y-31063D01*
X62945Y-31150D01*
X62819Y-31024D01*
X62613Y-30938D01*
X62389Y-30938D01*
X62182Y-31023D01*
X62024Y-31181D01*
X62000Y-31238D01*
X61977Y-31182D01*
X61819Y-31024D01*
X61613Y-30938D01*
X61389Y-30938D01*
X61182Y-31023D01*
X61024Y-31181D01*
X61000Y-31238D01*
X60977Y-31182D01*
X60819Y-31024D01*
X60613Y-30938D01*
X60389Y-30938D01*
X60182Y-31023D01*
X60024Y-31181D01*
X60000Y-31238D01*
X59977Y-31182D01*
X59819Y-31024D01*
X59613Y-30938D01*
X59389Y-30938D01*
X59182Y-31023D01*
X59024Y-31181D01*
X59000Y-31238D01*
X58977Y-31182D01*
X58819Y-31024D01*
X58613Y-30938D01*
X58389Y-30938D01*
X58182Y-31023D01*
X58024Y-31181D01*
X58000Y-31238D01*
X57977Y-31182D01*
X57819Y-31024D01*
X57613Y-30938D01*
X57389Y-30938D01*
X57182Y-31023D01*
X57024Y-31181D01*
X57000Y-31238D01*
X56977Y-31182D01*
X56819Y-31024D01*
X56613Y-30938D01*
X56389Y-30938D01*
X56182Y-31023D01*
X56024Y-31181D01*
X55938Y-31387D01*
X55938Y-31611D01*
X56023Y-31818D01*
X56095Y-31890D01*
X56095Y-35321D01*
X56004Y-35412D01*
X56000Y-35420D01*
X55997Y-35413D01*
X55832Y-35248D01*
X55617Y-35158D01*
X55384Y-35158D01*
X55169Y-35247D01*
X55004Y-35412D01*
X54980Y-35468D01*
X54847Y-35314D01*
X54637Y-35218D01*
X54550Y-35265D01*
X54550Y-35900D01*
X54550Y-35950D01*
X54550Y-36050D01*
X54550Y-36100D01*
X54550Y-36735D01*
X54637Y-36782D01*
X54847Y-36686D01*
X54980Y-36531D01*
X55003Y-36587D01*
X55095Y-36679D01*
X55095Y-36832D01*
X53832Y-38095D01*
X52500Y-38095D01*
X46477Y-38095D01*
X46786Y-37786D01*
X46874Y-37655D01*
X46904Y-37500D01*
X46905Y-37500D01*
X46905Y-36679D01*
X46996Y-36588D01*
X46999Y-36579D01*
X47003Y-36587D01*
X47168Y-36752D01*
X47383Y-36842D01*
X47616Y-36842D01*
X47831Y-36753D01*
X47996Y-36588D01*
X47999Y-36579D01*
X48003Y-36587D01*
X48168Y-36752D01*
X48383Y-36842D01*
X48616Y-36842D01*
X48831Y-36753D01*
X48996Y-36588D01*
X48999Y-36579D01*
X49003Y-36587D01*
X49168Y-36752D01*
X49383Y-36842D01*
X49616Y-36842D01*
X49831Y-36753D01*
X49996Y-36588D01*
X49999Y-36579D01*
X50003Y-36587D01*
X50168Y-36752D01*
X50383Y-36842D01*
X50616Y-36842D01*
X50831Y-36753D01*
X50996Y-36588D01*
X50999Y-36579D01*
X51003Y-36587D01*
X51168Y-36752D01*
X51383Y-36842D01*
X51616Y-36842D01*
X51831Y-36753D01*
X51996Y-36588D01*
X51999Y-36579D01*
X52003Y-36587D01*
X52168Y-36752D01*
X52383Y-36842D01*
X52616Y-36842D01*
X52831Y-36753D01*
X52996Y-36588D01*
X52999Y-36579D01*
X53003Y-36587D01*
X53168Y-36752D01*
X53383Y-36842D01*
X53616Y-36842D01*
X53831Y-36753D01*
X53996Y-36588D01*
X54019Y-36531D01*
X54153Y-36686D01*
X54363Y-36782D01*
X54450Y-36735D01*
X54450Y-36100D01*
X54450Y-36050D01*
X54450Y-35950D01*
X54450Y-35900D01*
X54450Y-35265D01*
X54363Y-35218D01*
X54153Y-35314D01*
X54019Y-35468D01*
X53997Y-35413D01*
X53905Y-35321D01*
X53905Y-34667D01*
X54286Y-34286D01*
X54374Y-34155D01*
X54404Y-34000D01*
X54405Y-34000D01*
X54405Y-30390D01*
X54446Y-30348D01*
X54483Y-30437D01*
X54563Y-30518D01*
X54668Y-30561D01*
X54782Y-30561D01*
X55332Y-30561D01*
X55437Y-30517D01*
X55518Y-30437D01*
X55561Y-30332D01*
X55561Y-30218D01*
X55561Y-29668D01*
X55517Y-29563D01*
X55437Y-29482D01*
X55332Y-29439D01*
X55218Y-29439D01*
X54668Y-29439D01*
X54563Y-29483D01*
X54482Y-29563D01*
X54445Y-29650D01*
X54319Y-29524D01*
X54113Y-29438D01*
X53889Y-29438D01*
X53682Y-29523D01*
X53524Y-29681D01*
X53438Y-29887D01*
X53438Y-30111D01*
X53523Y-30318D01*
X53595Y-30390D01*
X53595Y-33833D01*
X53214Y-34214D01*
X53126Y-34345D01*
X53095Y-34500D01*
X53095Y-35321D01*
X53004Y-35412D01*
X53000Y-35420D01*
X52997Y-35413D01*
X52905Y-35321D01*
X52905Y-31390D01*
X52976Y-31319D01*
X53062Y-31113D01*
X53062Y-30889D01*
X52977Y-30682D01*
X52819Y-30524D01*
X52613Y-30438D01*
X52389Y-30438D01*
X52182Y-30523D01*
X52024Y-30681D01*
X52000Y-30738D01*
X51977Y-30682D01*
X51819Y-30524D01*
X51613Y-30438D01*
X51389Y-30438D01*
X51182Y-30523D01*
X51024Y-30681D01*
X51000Y-30738D01*
X50977Y-30682D01*
X50819Y-30524D01*
X50613Y-30438D01*
X50389Y-30438D01*
X50182Y-30523D01*
X50024Y-30681D01*
X50000Y-30738D01*
X49977Y-30682D01*
X49819Y-30524D01*
X49613Y-30438D01*
X49389Y-30438D01*
X49182Y-30523D01*
X49024Y-30681D01*
X49000Y-30738D01*
X48977Y-30682D01*
X48819Y-30524D01*
X48613Y-30438D01*
X48389Y-30438D01*
X48182Y-30523D01*
X48024Y-30681D01*
X48000Y-30738D01*
X47977Y-30682D01*
X47819Y-30524D01*
X47613Y-30438D01*
X47389Y-30438D01*
X47182Y-30523D01*
X47024Y-30681D01*
X47000Y-30738D01*
X46977Y-30682D01*
X46819Y-30524D01*
X46613Y-30438D01*
X46389Y-30438D01*
X46182Y-30523D01*
X46053Y-30651D01*
X46017Y-30563D01*
X45937Y-30482D01*
X45832Y-30439D01*
X45718Y-30439D01*
X45168Y-30439D01*
X45063Y-30483D01*
X44982Y-30563D01*
X44939Y-30668D01*
X44939Y-30782D01*
X44939Y-31332D01*
X44983Y-31437D01*
X45063Y-31518D01*
X45095Y-31531D01*
X45095Y-35321D01*
X45004Y-35412D01*
X44998Y-35425D01*
X42786Y-33214D01*
X42655Y-33126D01*
X42500Y-33095D01*
X36667Y-33095D01*
X36061Y-32488D01*
X36061Y-32168D01*
X36019Y-32067D01*
X36019Y-31574D01*
X36008Y-31370D01*
X35952Y-31233D01*
X35861Y-31210D01*
X35790Y-31281D01*
X35790Y-31139D01*
X35767Y-31048D01*
X35574Y-30981D01*
X35370Y-30992D01*
X35233Y-31048D01*
X35210Y-31139D01*
X35500Y-31429D01*
X35790Y-31139D01*
X35790Y-31281D01*
X35571Y-31500D01*
X35861Y-31790D01*
X35952Y-31767D01*
X36019Y-31574D01*
X36019Y-32067D01*
X36017Y-32063D01*
X35937Y-31982D01*
X35832Y-31939D01*
X35770Y-31939D01*
X35790Y-31861D01*
X35500Y-31571D01*
X35429Y-31642D01*
X35429Y-31500D01*
X35139Y-31210D01*
X35048Y-31233D01*
X34981Y-31426D01*
X34992Y-31630D01*
X35048Y-31767D01*
X35139Y-31790D01*
X35429Y-31500D01*
X35429Y-31642D01*
X35210Y-31861D01*
X35229Y-31939D01*
X35168Y-31939D01*
X35063Y-31983D01*
X34982Y-32063D01*
X34939Y-32168D01*
X34939Y-32282D01*
X34939Y-32832D01*
X34983Y-32937D01*
X35063Y-33018D01*
X35168Y-33061D01*
X35282Y-33061D01*
X35488Y-33061D01*
X36213Y-33786D01*
X36214Y-33786D01*
X36345Y-33874D01*
X36500Y-33905D01*
X42332Y-33905D01*
X44713Y-36286D01*
X44714Y-36286D01*
X44845Y-36374D01*
X44921Y-36389D01*
X45003Y-36587D01*
X45168Y-36752D01*
X45383Y-36842D01*
X45616Y-36842D01*
X45831Y-36753D01*
X45996Y-36588D01*
X45999Y-36579D01*
X46003Y-36587D01*
X46095Y-36679D01*
X46095Y-37333D01*
X45833Y-37595D01*
X44667Y-37595D01*
X41286Y-34214D01*
X41155Y-34126D01*
X41000Y-34095D01*
X36030Y-34095D01*
X36017Y-34063D01*
X35937Y-33982D01*
X35832Y-33939D01*
X35718Y-33939D01*
X35168Y-33939D01*
X35063Y-33983D01*
X34982Y-34063D01*
X34939Y-34168D01*
X34939Y-34282D01*
X34939Y-34832D01*
X34983Y-34937D01*
X35063Y-35018D01*
X35168Y-35061D01*
X35229Y-35061D01*
X35210Y-35139D01*
X35500Y-35429D01*
X35790Y-35139D01*
X35770Y-35061D01*
X35832Y-35061D01*
X35937Y-35017D01*
X36018Y-34937D01*
X36031Y-34905D01*
X40832Y-34905D01*
X44022Y-38095D01*
X39390Y-38095D01*
X39319Y-38024D01*
X39113Y-37938D01*
X38889Y-37938D01*
X38682Y-38023D01*
X38524Y-38181D01*
X38438Y-38387D01*
X38438Y-38611D01*
X38523Y-38818D01*
X38651Y-38946D01*
X38563Y-38983D01*
X38482Y-39063D01*
X38439Y-39168D01*
X38439Y-39282D01*
X38439Y-39832D01*
X38483Y-39937D01*
X38563Y-40018D01*
X38668Y-40061D01*
X38782Y-40061D01*
X39332Y-40061D01*
X39437Y-40017D01*
X39518Y-39937D01*
X39531Y-39905D01*
X53332Y-39905D01*
X54095Y-40667D01*
X54095Y-41321D01*
X54004Y-41412D01*
X54000Y-41420D01*
X53997Y-41413D01*
X53832Y-41248D01*
X53617Y-41158D01*
X53384Y-41158D01*
X53169Y-41247D01*
X53004Y-41412D01*
X53000Y-41420D01*
X52997Y-41413D01*
X52832Y-41248D01*
X52617Y-41158D01*
X52384Y-41158D01*
X52169Y-41247D01*
X52004Y-41412D01*
X52000Y-41420D01*
X51997Y-41413D01*
X51832Y-41248D01*
X51617Y-41158D01*
X51384Y-41158D01*
X51169Y-41247D01*
X51004Y-41412D01*
X51000Y-41420D01*
X50997Y-41413D01*
X50832Y-41248D01*
X50617Y-41158D01*
X50384Y-41158D01*
X50169Y-41247D01*
X50004Y-41412D01*
X50000Y-41420D01*
X49997Y-41413D01*
X49832Y-41248D01*
X49617Y-41158D01*
X49384Y-41158D01*
X49169Y-41247D01*
X49004Y-41412D01*
X49000Y-41420D01*
X48997Y-41413D01*
X48832Y-41248D01*
X48617Y-41158D01*
X48384Y-41158D01*
X48169Y-41247D01*
X48004Y-41412D01*
X48000Y-41420D01*
X47997Y-41413D01*
X47832Y-41248D01*
X47617Y-41158D01*
X47384Y-41158D01*
X47169Y-41247D01*
X47004Y-41412D01*
X47000Y-41420D01*
X46997Y-41413D01*
X46832Y-41248D01*
X46617Y-41158D01*
X46384Y-41158D01*
X46169Y-41247D01*
X46074Y-41341D01*
X46052Y-41288D01*
X45972Y-41207D01*
X45867Y-41164D01*
X45753Y-41164D01*
X45133Y-41164D01*
X45028Y-41208D01*
X44947Y-41288D01*
X44904Y-41393D01*
X44904Y-41507D01*
X44904Y-42607D01*
X44948Y-42712D01*
X45028Y-42793D01*
X45095Y-42820D01*
X45095Y-47969D01*
X45063Y-47983D01*
X44982Y-48063D01*
X44939Y-48168D01*
X44939Y-48282D01*
X44939Y-48832D01*
X44983Y-48937D01*
X45063Y-49018D01*
X45168Y-49061D01*
X45282Y-49061D01*
X45832Y-49061D01*
X45937Y-49017D01*
X46018Y-48937D01*
X46054Y-48849D01*
X46181Y-48976D01*
X46387Y-49062D01*
X46611Y-49062D01*
X46818Y-48977D01*
X46976Y-48819D01*
X46999Y-48761D01*
X47023Y-48818D01*
X47181Y-48976D01*
X47387Y-49062D01*
X47611Y-49062D01*
X47818Y-48977D01*
X47976Y-48819D01*
X47999Y-48761D01*
X48023Y-48818D01*
X48181Y-48976D01*
X48387Y-49062D01*
X48611Y-49062D01*
X48818Y-48977D01*
X48976Y-48819D01*
X48999Y-48761D01*
X49023Y-48818D01*
X49181Y-48976D01*
X49387Y-49062D01*
X49611Y-49062D01*
X49818Y-48977D01*
X49976Y-48819D01*
X49999Y-48761D01*
X50023Y-48818D01*
X50181Y-48976D01*
X50387Y-49062D01*
X50611Y-49062D01*
X50818Y-48977D01*
X50976Y-48819D01*
X50999Y-48761D01*
X51023Y-48818D01*
X51181Y-48976D01*
X51387Y-49062D01*
X51611Y-49062D01*
X51818Y-48977D01*
X51976Y-48819D01*
X51999Y-48761D01*
X52023Y-48818D01*
X52181Y-48976D01*
X52387Y-49062D01*
X52611Y-49062D01*
X52818Y-48977D01*
X52976Y-48819D01*
X53062Y-48613D01*
X53062Y-48389D01*
X52977Y-48182D01*
X52905Y-48110D01*
X52905Y-46390D01*
X52976Y-46319D01*
X52999Y-46261D01*
X53023Y-46318D01*
X53181Y-46476D01*
X53387Y-46562D01*
X53611Y-46562D01*
X53818Y-46477D01*
X53976Y-46319D01*
X53999Y-46261D01*
X54023Y-46318D01*
X54095Y-46390D01*
X54095Y-48332D01*
X52714Y-49714D01*
X52626Y-49845D01*
X52595Y-50000D01*
X52595Y-53000D01*
X52626Y-53155D01*
X52714Y-53286D01*
X53214Y-53786D01*
X53345Y-53874D01*
X53500Y-53905D01*
X57332Y-53905D01*
X58095Y-54667D01*
X58095Y-55000D01*
X58126Y-55155D01*
X58214Y-55286D01*
X58714Y-55786D01*
X58845Y-55874D01*
X59000Y-55905D01*
X61500Y-55905D01*
X61500Y-55904D01*
X61655Y-55874D01*
X61786Y-55786D01*
X62167Y-55405D01*
X64110Y-55405D01*
X64181Y-55476D01*
X64387Y-55562D01*
X64611Y-55562D01*
X64818Y-55477D01*
X64890Y-55405D01*
X66000Y-55405D01*
X66000Y-55404D01*
X66155Y-55374D01*
X66286Y-55286D01*
X66667Y-54905D01*
X66969Y-54905D01*
X66983Y-54937D01*
X67063Y-55018D01*
X67168Y-55061D01*
X67282Y-55061D01*
X67832Y-55061D01*
X67937Y-55017D01*
X68018Y-54937D01*
X68054Y-54849D01*
X68181Y-54976D01*
X68387Y-55062D01*
X68611Y-55062D01*
X68818Y-54977D01*
X68976Y-54819D01*
X68999Y-54761D01*
X69023Y-54818D01*
X69181Y-54976D01*
X69387Y-55062D01*
X69611Y-55062D01*
X69818Y-54977D01*
X69976Y-54819D01*
X70062Y-54613D01*
X70062Y-54389D01*
X69977Y-54182D01*
X69819Y-54024D01*
X69613Y-53938D01*
X69389Y-53938D01*
X69182Y-54023D01*
X69024Y-54181D01*
X69000Y-54238D01*
X68977Y-54182D01*
X68933Y-54138D01*
X70011Y-53061D01*
X70332Y-53061D01*
X70437Y-53017D01*
X70518Y-52937D01*
X70531Y-52905D01*
X71595Y-52905D01*
X71595Y-53504D01*
X71460Y-53639D01*
X71363Y-53873D01*
X71363Y-54126D01*
X71460Y-54360D01*
X71639Y-54540D01*
X71873Y-54637D01*
X72126Y-54637D01*
X72360Y-54540D01*
X72430Y-54470D01*
X72439Y-54491D01*
X72509Y-54561D01*
X72600Y-54599D01*
X72699Y-54599D01*
X72888Y-54600D01*
X72950Y-54538D01*
X72950Y-54100D01*
X72950Y-54050D01*
X72950Y-53950D01*
X72950Y-53900D01*
X72950Y-53462D01*
X72888Y-53400D01*
X72699Y-53401D01*
X72600Y-53401D01*
X72509Y-53439D01*
X72439Y-53509D01*
X72430Y-53529D01*
X72405Y-53504D01*
X72405Y-52890D01*
X72476Y-52819D01*
X72562Y-52613D01*
X72562Y-52389D01*
X72519Y-52284D01*
X72519Y-51574D01*
X72508Y-51370D01*
X72452Y-51233D01*
X72361Y-51210D01*
X72290Y-51281D01*
X72290Y-51139D01*
X72267Y-51048D01*
X72074Y-50981D01*
X71870Y-50992D01*
X71733Y-51048D01*
X71710Y-51139D01*
X72000Y-51429D01*
X72290Y-51139D01*
X72290Y-51281D01*
X72071Y-51500D01*
X72361Y-51790D01*
X72452Y-51767D01*
X72519Y-51574D01*
X72519Y-52284D01*
X72477Y-52182D01*
X72319Y-52024D01*
X72206Y-51976D01*
X72267Y-51952D01*
X72290Y-51861D01*
X72000Y-51571D01*
X71929Y-51642D01*
X71929Y-51500D01*
X71639Y-51210D01*
X71548Y-51233D01*
X71481Y-51426D01*
X71492Y-51630D01*
X71548Y-51767D01*
X71639Y-51790D01*
X71929Y-51500D01*
X71929Y-51642D01*
X71710Y-51861D01*
X71733Y-51952D01*
X71799Y-51974D01*
X71682Y-52023D01*
X71610Y-52095D01*
X70530Y-52095D01*
X70519Y-52067D01*
X70519Y-51574D01*
X70508Y-51370D01*
X70452Y-51233D01*
X70361Y-51210D01*
X70290Y-51281D01*
X70290Y-51139D01*
X70267Y-51048D01*
X70074Y-50981D01*
X69870Y-50992D01*
X69733Y-51048D01*
X69710Y-51139D01*
X70000Y-51429D01*
X70290Y-51139D01*
X70290Y-51281D01*
X70071Y-51500D01*
X70361Y-51790D01*
X70452Y-51767D01*
X70519Y-51574D01*
X70519Y-52067D01*
X70517Y-52063D01*
X70437Y-51982D01*
X70332Y-51939D01*
X70270Y-51939D01*
X70290Y-51861D01*
X70000Y-51571D01*
X69929Y-51642D01*
X69929Y-51500D01*
X69639Y-51210D01*
X69548Y-51233D01*
X69481Y-51426D01*
X69492Y-51630D01*
X69548Y-51767D01*
X69639Y-51790D01*
X69929Y-51500D01*
X69929Y-51642D01*
X69710Y-51861D01*
X69729Y-51939D01*
X69668Y-51939D01*
X69563Y-51983D01*
X69482Y-52063D01*
X69439Y-52168D01*
X69439Y-52282D01*
X69439Y-52488D01*
X68214Y-53714D01*
X68126Y-53845D01*
X68095Y-54000D01*
X68095Y-54110D01*
X68053Y-54151D01*
X68017Y-54063D01*
X67937Y-53982D01*
X67832Y-53939D01*
X67718Y-53939D01*
X67617Y-53939D01*
X67617Y-52123D01*
X67617Y-51878D01*
X67573Y-51771D01*
X67573Y-51086D01*
X67562Y-50861D01*
X67496Y-50702D01*
X67400Y-50671D01*
X67329Y-50742D01*
X67329Y-50600D01*
X67298Y-50504D01*
X67086Y-50427D01*
X66861Y-50438D01*
X66702Y-50504D01*
X66671Y-50600D01*
X67000Y-50929D01*
X67329Y-50600D01*
X67329Y-50742D01*
X67071Y-51000D01*
X67400Y-51329D01*
X67496Y-51298D01*
X67573Y-51086D01*
X67573Y-51771D01*
X67523Y-51651D01*
X67350Y-51477D01*
X67309Y-51460D01*
X67329Y-51400D01*
X67000Y-51071D01*
X66929Y-51142D01*
X66929Y-51000D01*
X66600Y-50671D01*
X66504Y-50702D01*
X66427Y-50914D01*
X66438Y-51139D01*
X66504Y-51298D01*
X66600Y-51329D01*
X66929Y-51000D01*
X66929Y-51142D01*
X66671Y-51400D01*
X66690Y-51460D01*
X66651Y-51477D01*
X66532Y-51595D01*
X64890Y-51595D01*
X64819Y-51524D01*
X64613Y-51438D01*
X64389Y-51438D01*
X64182Y-51523D01*
X64024Y-51681D01*
X63938Y-51887D01*
X63938Y-52111D01*
X64023Y-52318D01*
X64181Y-52476D01*
X64387Y-52562D01*
X64611Y-52562D01*
X64818Y-52477D01*
X64890Y-52405D01*
X66532Y-52405D01*
X66650Y-52523D01*
X66877Y-52617D01*
X67122Y-52617D01*
X67349Y-52523D01*
X67523Y-52350D01*
X67617Y-52123D01*
X67617Y-53939D01*
X67168Y-53939D01*
X67063Y-53983D01*
X66982Y-54063D01*
X66968Y-54095D01*
X66500Y-54095D01*
X66345Y-54126D01*
X66214Y-54214D01*
X65833Y-54595D01*
X64890Y-54595D01*
X64819Y-54524D01*
X64613Y-54438D01*
X64389Y-54438D01*
X64182Y-54523D01*
X64110Y-54595D01*
X62000Y-54595D01*
X61845Y-54626D01*
X61714Y-54714D01*
X61333Y-55095D01*
X59167Y-55095D01*
X59019Y-54947D01*
X59019Y-51574D01*
X59008Y-51370D01*
X58952Y-51233D01*
X58861Y-51210D01*
X58571Y-51500D01*
X58861Y-51790D01*
X58952Y-51767D01*
X59019Y-51574D01*
X59019Y-54947D01*
X58905Y-54833D01*
X58905Y-54500D01*
X58874Y-54345D01*
X58790Y-54219D01*
X58790Y-51861D01*
X58500Y-51571D01*
X58429Y-51642D01*
X58429Y-51500D01*
X58139Y-51210D01*
X58048Y-51233D01*
X57981Y-51426D01*
X57992Y-51630D01*
X58048Y-51767D01*
X58139Y-51790D01*
X58429Y-51500D01*
X58429Y-51642D01*
X58210Y-51861D01*
X58233Y-51952D01*
X58426Y-52019D01*
X58630Y-52008D01*
X58767Y-51952D01*
X58790Y-51861D01*
X58790Y-54219D01*
X58786Y-54214D01*
X58786Y-54213D01*
X57786Y-53214D01*
X57655Y-53126D01*
X57500Y-53095D01*
X56519Y-53095D01*
X56519Y-51574D01*
X56508Y-51370D01*
X56452Y-51233D01*
X56361Y-51210D01*
X56071Y-51500D01*
X56361Y-51790D01*
X56452Y-51767D01*
X56519Y-51574D01*
X56519Y-53095D01*
X56290Y-53095D01*
X56290Y-51861D01*
X56000Y-51571D01*
X55929Y-51642D01*
X55929Y-51500D01*
X55639Y-51210D01*
X55548Y-51233D01*
X55481Y-51426D01*
X55492Y-51630D01*
X55548Y-51767D01*
X55639Y-51790D01*
X55929Y-51500D01*
X55929Y-51642D01*
X55710Y-51861D01*
X55733Y-51952D01*
X55926Y-52019D01*
X56130Y-52008D01*
X56267Y-51952D01*
X56290Y-51861D01*
X56290Y-53095D01*
X53667Y-53095D01*
X53405Y-52833D01*
X53405Y-50167D01*
X54786Y-48787D01*
X54786Y-48786D01*
X54874Y-48655D01*
X54904Y-48500D01*
X54905Y-48500D01*
X54905Y-46390D01*
X54976Y-46319D01*
X55023Y-46206D01*
X55048Y-46267D01*
X55139Y-46290D01*
X55429Y-46000D01*
X55139Y-45710D01*
X55048Y-45733D01*
X55025Y-45799D01*
X54977Y-45682D01*
X54819Y-45524D01*
X54613Y-45438D01*
X54389Y-45438D01*
X54182Y-45523D01*
X54024Y-45681D01*
X54000Y-45738D01*
X53977Y-45682D01*
X53905Y-45610D01*
X53905Y-42679D01*
X53996Y-42588D01*
X53999Y-42579D01*
X54003Y-42587D01*
X54168Y-42752D01*
X54383Y-42842D01*
X54616Y-42842D01*
X54831Y-42753D01*
X54996Y-42588D01*
X55019Y-42531D01*
X55153Y-42686D01*
X55363Y-42782D01*
X55450Y-42735D01*
X55450Y-42100D01*
X55450Y-42050D01*
X55450Y-41950D01*
X55450Y-41900D01*
X55450Y-41265D01*
X55363Y-41218D01*
X55153Y-41314D01*
X55019Y-41468D01*
X54997Y-41413D01*
X54905Y-41321D01*
X54905Y-40500D01*
X54905Y-39667D01*
X56167Y-38405D01*
X67000Y-38405D01*
X67000Y-38404D01*
X67155Y-38374D01*
X67286Y-38286D01*
X69286Y-36287D01*
X69286Y-36286D01*
X69374Y-36155D01*
X69404Y-36000D01*
X69405Y-36000D01*
X69405Y-33667D01*
X70167Y-32905D01*
X79832Y-32905D01*
X81095Y-34167D01*
X81095Y-47332D01*
X78832Y-49595D01*
X70405Y-49595D01*
X70405Y-49000D01*
X70405Y-48890D01*
X70446Y-48848D01*
X70483Y-48937D01*
X70563Y-49018D01*
X70668Y-49061D01*
X70782Y-49061D01*
X71332Y-49061D01*
X71437Y-49017D01*
X71518Y-48937D01*
X71531Y-48905D01*
X78000Y-48905D01*
X78000Y-48904D01*
X78155Y-48874D01*
X78286Y-48786D01*
X80286Y-46787D01*
X80286Y-46786D01*
X80374Y-46655D01*
X80404Y-46500D01*
X80405Y-46500D01*
X80405Y-35000D01*
X80374Y-34845D01*
X80286Y-34714D01*
X80286Y-34713D01*
X78786Y-33214D01*
X78655Y-33126D01*
X78500Y-33095D01*
X71500Y-33095D01*
X71345Y-33126D01*
X71213Y-33214D01*
X70214Y-34214D01*
X70126Y-34345D01*
X70095Y-34500D01*
X70095Y-36000D01*
X70126Y-36155D01*
X70214Y-36286D01*
X70345Y-36374D01*
X70500Y-36405D01*
X72523Y-36405D01*
X72214Y-36714D01*
X72126Y-36845D01*
X72095Y-37000D01*
X72095Y-37469D01*
X72063Y-37483D01*
X71982Y-37563D01*
X71968Y-37595D01*
X70000Y-37595D01*
X69845Y-37626D01*
X69714Y-37714D01*
X69214Y-38214D01*
X69126Y-38345D01*
X69095Y-38500D01*
X69095Y-41500D01*
X69126Y-41655D01*
X69214Y-41786D01*
X69714Y-42286D01*
X69845Y-42374D01*
X70000Y-42405D01*
X71110Y-42405D01*
X71181Y-42476D01*
X71387Y-42562D01*
X71611Y-42562D01*
X71818Y-42477D01*
X71976Y-42319D01*
X72062Y-42113D01*
X72062Y-41889D01*
X71977Y-41682D01*
X71819Y-41524D01*
X71613Y-41438D01*
X71389Y-41438D01*
X71182Y-41523D01*
X71110Y-41595D01*
X70167Y-41595D01*
X69905Y-41333D01*
X69905Y-38667D01*
X70167Y-38405D01*
X71969Y-38405D01*
X71983Y-38437D01*
X72063Y-38518D01*
X72168Y-38561D01*
X72282Y-38561D01*
X72832Y-38561D01*
X72937Y-38517D01*
X73018Y-38437D01*
X73061Y-38332D01*
X73061Y-38218D01*
X73061Y-37668D01*
X73017Y-37563D01*
X72937Y-37482D01*
X72905Y-37468D01*
X72905Y-37167D01*
X73167Y-36905D01*
X74333Y-36905D01*
X74595Y-37167D01*
X74595Y-39000D01*
X74626Y-39155D01*
X74714Y-39286D01*
X75214Y-39786D01*
X75345Y-39874D01*
X75500Y-39905D01*
X76225Y-39905D01*
X76317Y-39997D01*
X76533Y-40087D01*
X76766Y-40087D01*
X76982Y-39998D01*
X77032Y-39948D01*
X77032Y-40396D01*
X76833Y-40595D01*
X75667Y-40595D01*
X74405Y-39332D01*
X74405Y-38530D01*
X74437Y-38517D01*
X74518Y-38437D01*
X74561Y-38332D01*
X74561Y-38218D01*
X74561Y-37668D01*
X74517Y-37563D01*
X74437Y-37482D01*
X74332Y-37439D01*
X74218Y-37439D01*
X73668Y-37439D01*
X73563Y-37483D01*
X73482Y-37563D01*
X73439Y-37668D01*
X73439Y-37782D01*
X73439Y-38332D01*
X73483Y-38437D01*
X73563Y-38518D01*
X73595Y-38531D01*
X73595Y-39333D01*
X73333Y-39595D01*
X71890Y-39595D01*
X71819Y-39524D01*
X71613Y-39438D01*
X71389Y-39438D01*
X71182Y-39523D01*
X71024Y-39681D01*
X70938Y-39887D01*
X70938Y-40111D01*
X71023Y-40318D01*
X71181Y-40476D01*
X71387Y-40562D01*
X71611Y-40562D01*
X71818Y-40477D01*
X71890Y-40405D01*
X73500Y-40405D01*
X73500Y-40404D01*
X73655Y-40374D01*
X73786Y-40286D01*
X73999Y-40072D01*
X75213Y-41286D01*
X75214Y-41286D01*
X75345Y-41374D01*
X75500Y-41405D01*
X77000Y-41405D01*
X77000Y-41404D01*
X77155Y-41374D01*
X77286Y-41286D01*
X77723Y-40849D01*
X77811Y-40718D01*
X77841Y-40563D01*
X77842Y-40563D01*
X77842Y-39925D01*
X77934Y-39833D01*
X78024Y-39617D01*
X78024Y-39384D01*
X77980Y-39277D01*
X77980Y-38579D01*
X77969Y-38366D01*
X77909Y-38219D01*
X77815Y-38192D01*
X77745Y-38262D01*
X77508Y-38500D01*
X77815Y-38808D01*
X77909Y-38781D01*
X77980Y-38579D01*
X77980Y-39277D01*
X77935Y-39168D01*
X77770Y-39003D01*
X77706Y-38976D01*
X77718Y-38972D01*
X77745Y-38878D01*
X77472Y-38606D01*
X77437Y-38571D01*
X77366Y-38500D01*
X77437Y-38429D01*
X77472Y-38394D01*
X77745Y-38122D01*
X77718Y-38028D01*
X77516Y-37957D01*
X77303Y-37968D01*
X77156Y-38028D01*
X77144Y-38066D01*
X77112Y-38034D01*
X77063Y-38083D01*
X76983Y-38003D01*
X76767Y-37913D01*
X76635Y-37913D01*
X76405Y-37682D01*
X76405Y-36500D01*
X76374Y-36345D01*
X76286Y-36214D01*
X75786Y-35714D01*
X75655Y-35626D01*
X75500Y-35595D01*
X74519Y-35595D01*
X74519Y-35074D01*
X74508Y-34870D01*
X74452Y-34733D01*
X74361Y-34710D01*
X74290Y-34781D01*
X74290Y-34639D01*
X74267Y-34548D01*
X74074Y-34481D01*
X73870Y-34492D01*
X73733Y-34548D01*
X73710Y-34639D01*
X74000Y-34929D01*
X74290Y-34639D01*
X74290Y-34781D01*
X74071Y-35000D01*
X74361Y-35290D01*
X74452Y-35267D01*
X74519Y-35074D01*
X74519Y-35595D01*
X74290Y-35595D01*
X74290Y-35361D01*
X74000Y-35071D01*
X73929Y-35142D01*
X73929Y-35000D01*
X73639Y-34710D01*
X73548Y-34733D01*
X73481Y-34926D01*
X73492Y-35130D01*
X73548Y-35267D01*
X73639Y-35290D01*
X73929Y-35000D01*
X73929Y-35142D01*
X73710Y-35361D01*
X73733Y-35452D01*
X73926Y-35519D01*
X74130Y-35508D01*
X74267Y-35452D01*
X74290Y-35361D01*
X74290Y-35595D01*
X73019Y-35595D01*
X73019Y-35074D01*
X73008Y-34870D01*
X72952Y-34733D01*
X72861Y-34710D01*
X72790Y-34781D01*
X72790Y-34639D01*
X72767Y-34548D01*
X72574Y-34481D01*
X72370Y-34492D01*
X72233Y-34548D01*
X72210Y-34639D01*
X72500Y-34929D01*
X72790Y-34639D01*
X72790Y-34781D01*
X72571Y-35000D01*
X72861Y-35290D01*
X72952Y-35267D01*
X73019Y-35074D01*
X73019Y-35595D01*
X72790Y-35595D01*
X72790Y-35361D01*
X72500Y-35071D01*
X72429Y-35142D01*
X72429Y-35000D01*
X72139Y-34710D01*
X72048Y-34733D01*
X71981Y-34926D01*
X71992Y-35130D01*
X72048Y-35267D01*
X72139Y-35290D01*
X72429Y-35000D01*
X72429Y-35142D01*
X72210Y-35361D01*
X72233Y-35452D01*
X72426Y-35519D01*
X72630Y-35508D01*
X72767Y-35452D01*
X72790Y-35361D01*
X72790Y-35595D01*
X70905Y-35595D01*
X70905Y-34667D01*
X71667Y-33905D01*
X78332Y-33905D01*
X79595Y-35167D01*
X79595Y-46332D01*
X79318Y-46609D01*
X79318Y-41525D01*
X79318Y-41200D01*
X79318Y-36801D01*
X79318Y-36476D01*
X79194Y-36175D01*
X78964Y-35945D01*
X78663Y-35820D01*
X78338Y-35820D01*
X78037Y-35944D01*
X77807Y-36174D01*
X77682Y-36475D01*
X77682Y-36800D01*
X77806Y-37101D01*
X78036Y-37331D01*
X78337Y-37456D01*
X78662Y-37456D01*
X78963Y-37332D01*
X79193Y-37102D01*
X79318Y-36801D01*
X79318Y-41200D01*
X79194Y-40899D01*
X78964Y-40669D01*
X78663Y-40544D01*
X78338Y-40544D01*
X78037Y-40668D01*
X77807Y-40898D01*
X77682Y-41199D01*
X77682Y-41524D01*
X77806Y-41825D01*
X78036Y-42055D01*
X78337Y-42180D01*
X78662Y-42180D01*
X78963Y-42056D01*
X79193Y-41826D01*
X79318Y-41525D01*
X79318Y-46609D01*
X77832Y-48095D01*
X71530Y-48095D01*
X71517Y-48063D01*
X71437Y-47982D01*
X71332Y-47939D01*
X71218Y-47939D01*
X70668Y-47939D01*
X70563Y-47983D01*
X70482Y-48063D01*
X70445Y-48150D01*
X70319Y-48024D01*
X70113Y-47938D01*
X69889Y-47938D01*
X69682Y-48023D01*
X69524Y-48181D01*
X69500Y-48238D01*
X69477Y-48182D01*
X69319Y-48024D01*
X69113Y-47938D01*
X69062Y-47938D01*
X69062Y-42113D01*
X69062Y-41889D01*
X68977Y-41682D01*
X68905Y-41610D01*
X68905Y-41500D01*
X68874Y-41345D01*
X68786Y-41214D01*
X68786Y-41213D01*
X67977Y-40405D01*
X68110Y-40405D01*
X68181Y-40476D01*
X68387Y-40562D01*
X68611Y-40562D01*
X68818Y-40477D01*
X68976Y-40319D01*
X69062Y-40113D01*
X69062Y-39889D01*
X68977Y-39682D01*
X68819Y-39524D01*
X68613Y-39438D01*
X68389Y-39438D01*
X68182Y-39523D01*
X68110Y-39595D01*
X61500Y-39595D01*
X61345Y-39626D01*
X61213Y-39714D01*
X60214Y-40714D01*
X60126Y-40845D01*
X60095Y-41000D01*
X60095Y-41321D01*
X60004Y-41412D01*
X60000Y-41420D01*
X59997Y-41413D01*
X59832Y-41248D01*
X59617Y-41158D01*
X59384Y-41158D01*
X59169Y-41247D01*
X59004Y-41412D01*
X59000Y-41420D01*
X58997Y-41413D01*
X58832Y-41248D01*
X58617Y-41158D01*
X58384Y-41158D01*
X58169Y-41247D01*
X58004Y-41412D01*
X58000Y-41420D01*
X57997Y-41413D01*
X57832Y-41248D01*
X57617Y-41158D01*
X57384Y-41158D01*
X57169Y-41247D01*
X57004Y-41412D01*
X57000Y-41420D01*
X56997Y-41413D01*
X56832Y-41248D01*
X56617Y-41158D01*
X56384Y-41158D01*
X56169Y-41247D01*
X56004Y-41412D01*
X55980Y-41468D01*
X55847Y-41314D01*
X55637Y-41218D01*
X55550Y-41265D01*
X55550Y-41900D01*
X55550Y-41950D01*
X55550Y-42050D01*
X55550Y-42100D01*
X55550Y-42735D01*
X55637Y-42782D01*
X55847Y-42686D01*
X55980Y-42531D01*
X56003Y-42587D01*
X56095Y-42679D01*
X56095Y-43500D01*
X56126Y-43655D01*
X56214Y-43786D01*
X56595Y-44167D01*
X56595Y-48075D01*
X56503Y-48167D01*
X56413Y-48383D01*
X56413Y-48616D01*
X56502Y-48832D01*
X56595Y-48925D01*
X56595Y-49332D01*
X56019Y-49908D01*
X56019Y-46074D01*
X56008Y-45870D01*
X55952Y-45733D01*
X55861Y-45710D01*
X55790Y-45781D01*
X55790Y-45639D01*
X55767Y-45548D01*
X55574Y-45481D01*
X55370Y-45492D01*
X55233Y-45548D01*
X55210Y-45639D01*
X55500Y-45929D01*
X55790Y-45639D01*
X55790Y-45781D01*
X55571Y-46000D01*
X55861Y-46290D01*
X55952Y-46267D01*
X56019Y-46074D01*
X56019Y-49908D01*
X55989Y-49938D01*
X55889Y-49938D01*
X55790Y-49978D01*
X55790Y-46361D01*
X55500Y-46071D01*
X55210Y-46361D01*
X55233Y-46452D01*
X55426Y-46519D01*
X55630Y-46508D01*
X55767Y-46452D01*
X55790Y-46361D01*
X55790Y-49978D01*
X55682Y-50023D01*
X55524Y-50181D01*
X55438Y-50387D01*
X55438Y-50611D01*
X55523Y-50818D01*
X55681Y-50976D01*
X55793Y-51023D01*
X55733Y-51048D01*
X55710Y-51139D01*
X56000Y-51429D01*
X56290Y-51139D01*
X56267Y-51048D01*
X56200Y-51025D01*
X56318Y-50977D01*
X56476Y-50819D01*
X56562Y-50613D01*
X56562Y-50510D01*
X57286Y-49787D01*
X57286Y-49786D01*
X57374Y-49655D01*
X57404Y-49500D01*
X57405Y-49500D01*
X57405Y-48925D01*
X57431Y-48898D01*
X57458Y-48962D01*
X57538Y-49043D01*
X57595Y-49066D01*
X57595Y-49500D01*
X57626Y-49655D01*
X57714Y-49786D01*
X58066Y-50138D01*
X58024Y-50181D01*
X57938Y-50387D01*
X57938Y-50611D01*
X58023Y-50818D01*
X58181Y-50976D01*
X58293Y-51023D01*
X58233Y-51048D01*
X58210Y-51139D01*
X58500Y-51429D01*
X58790Y-51139D01*
X58767Y-51048D01*
X58700Y-51025D01*
X58818Y-50977D01*
X58976Y-50819D01*
X59062Y-50613D01*
X59062Y-50389D01*
X58977Y-50182D01*
X58905Y-50110D01*
X58905Y-50000D01*
X58874Y-49845D01*
X58786Y-49714D01*
X58405Y-49333D01*
X58405Y-49065D01*
X58462Y-49042D01*
X58543Y-48962D01*
X58586Y-48857D01*
X58586Y-48743D01*
X58586Y-48143D01*
X58542Y-48038D01*
X58462Y-47957D01*
X58405Y-47933D01*
X58405Y-44649D01*
X59095Y-45339D01*
X59095Y-46469D01*
X59063Y-46483D01*
X58982Y-46563D01*
X58939Y-46668D01*
X58939Y-46782D01*
X58939Y-47332D01*
X58983Y-47437D01*
X59063Y-47518D01*
X59168Y-47561D01*
X59282Y-47561D01*
X59832Y-47561D01*
X59937Y-47517D01*
X60018Y-47437D01*
X60054Y-47349D01*
X60181Y-47476D01*
X60387Y-47562D01*
X60611Y-47562D01*
X60818Y-47477D01*
X60976Y-47319D01*
X60999Y-47261D01*
X61023Y-47318D01*
X61181Y-47476D01*
X61387Y-47562D01*
X61611Y-47562D01*
X61818Y-47477D01*
X61976Y-47319D01*
X61999Y-47261D01*
X62023Y-47318D01*
X62181Y-47476D01*
X62387Y-47562D01*
X62611Y-47562D01*
X62818Y-47477D01*
X62976Y-47319D01*
X62999Y-47261D01*
X63023Y-47318D01*
X63181Y-47476D01*
X63387Y-47562D01*
X63611Y-47562D01*
X63818Y-47477D01*
X63976Y-47319D01*
X63999Y-47261D01*
X64023Y-47318D01*
X64181Y-47476D01*
X64387Y-47562D01*
X64611Y-47562D01*
X64818Y-47477D01*
X64976Y-47319D01*
X64999Y-47261D01*
X65023Y-47318D01*
X65181Y-47476D01*
X65387Y-47562D01*
X65611Y-47562D01*
X65818Y-47477D01*
X65976Y-47319D01*
X65999Y-47261D01*
X66023Y-47318D01*
X66181Y-47476D01*
X66387Y-47562D01*
X66611Y-47562D01*
X66818Y-47477D01*
X66976Y-47319D01*
X67062Y-47113D01*
X67062Y-46889D01*
X66977Y-46682D01*
X66819Y-46524D01*
X66613Y-46438D01*
X66389Y-46438D01*
X66182Y-46523D01*
X66024Y-46681D01*
X66000Y-46738D01*
X65977Y-46682D01*
X65905Y-46610D01*
X65905Y-44000D01*
X65874Y-43845D01*
X65786Y-43714D01*
X65786Y-43713D01*
X64905Y-42832D01*
X64905Y-42679D01*
X64996Y-42588D01*
X65086Y-42373D01*
X65086Y-42140D01*
X65086Y-41628D01*
X64997Y-41413D01*
X64832Y-41248D01*
X64617Y-41158D01*
X64384Y-41158D01*
X64169Y-41247D01*
X64004Y-41412D01*
X64000Y-41420D01*
X63997Y-41413D01*
X63832Y-41248D01*
X63617Y-41158D01*
X63384Y-41158D01*
X63169Y-41247D01*
X63004Y-41412D01*
X63000Y-41420D01*
X62997Y-41413D01*
X62905Y-41321D01*
X62905Y-40905D01*
X67332Y-40905D01*
X68066Y-41638D01*
X68024Y-41681D01*
X67938Y-41887D01*
X67938Y-42111D01*
X68023Y-42318D01*
X68181Y-42476D01*
X68387Y-42562D01*
X68611Y-42562D01*
X68818Y-42477D01*
X68976Y-42319D01*
X69062Y-42113D01*
X69062Y-47938D01*
X68889Y-47938D01*
X68682Y-48023D01*
X68524Y-48181D01*
X68438Y-48387D01*
X68438Y-48611D01*
X68523Y-48818D01*
X68681Y-48976D01*
X68887Y-49062D01*
X69111Y-49062D01*
X69318Y-48977D01*
X69476Y-48819D01*
X69499Y-48761D01*
X69523Y-48818D01*
X69595Y-48890D01*
X69595Y-49000D01*
X69595Y-50000D01*
X69626Y-50155D01*
X69714Y-50286D01*
X69845Y-50374D01*
X70000Y-50405D01*
X79000Y-50405D01*
X79000Y-50404D01*
X79155Y-50374D01*
X79286Y-50286D01*
X81786Y-47787D01*
X81786Y-47786D01*
X81874Y-47655D01*
X81904Y-47500D01*
X81905Y-47500D01*
X81905Y-57950D01*
X79561Y-57950D01*
X79561Y-52832D01*
X79561Y-52718D01*
X79561Y-52168D01*
X79519Y-52067D01*
X79519Y-51574D01*
X79508Y-51370D01*
X79452Y-51233D01*
X79361Y-51210D01*
X79290Y-51281D01*
X79290Y-51139D01*
X79267Y-51048D01*
X79074Y-50981D01*
X78870Y-50992D01*
X78733Y-51048D01*
X78710Y-51139D01*
X79000Y-51429D01*
X79290Y-51139D01*
X79290Y-51281D01*
X79071Y-51500D01*
X79361Y-51790D01*
X79452Y-51767D01*
X79519Y-51574D01*
X79519Y-52067D01*
X79517Y-52063D01*
X79437Y-51982D01*
X79332Y-51939D01*
X79270Y-51939D01*
X79290Y-51861D01*
X79000Y-51571D01*
X78929Y-51642D01*
X78929Y-51500D01*
X78639Y-51210D01*
X78548Y-51233D01*
X78481Y-51426D01*
X78492Y-51630D01*
X78548Y-51767D01*
X78639Y-51790D01*
X78929Y-51500D01*
X78929Y-51642D01*
X78710Y-51861D01*
X78729Y-51939D01*
X78668Y-51939D01*
X78563Y-51983D01*
X78482Y-52063D01*
X78468Y-52095D01*
X77030Y-52095D01*
X77019Y-52067D01*
X77019Y-51574D01*
X77008Y-51370D01*
X76952Y-51233D01*
X76861Y-51210D01*
X76790Y-51281D01*
X76790Y-51139D01*
X76767Y-51048D01*
X76574Y-50981D01*
X76370Y-50992D01*
X76233Y-51048D01*
X76210Y-51139D01*
X76500Y-51429D01*
X76790Y-51139D01*
X76790Y-51281D01*
X76571Y-51500D01*
X76861Y-51790D01*
X76952Y-51767D01*
X77019Y-51574D01*
X77019Y-52067D01*
X77017Y-52063D01*
X76937Y-51982D01*
X76832Y-51939D01*
X76770Y-51939D01*
X76790Y-51861D01*
X76500Y-51571D01*
X76429Y-51642D01*
X76429Y-51500D01*
X76139Y-51210D01*
X76048Y-51233D01*
X75981Y-51426D01*
X75992Y-51630D01*
X76048Y-51767D01*
X76139Y-51790D01*
X76429Y-51500D01*
X76429Y-51642D01*
X76210Y-51861D01*
X76229Y-51939D01*
X76168Y-51939D01*
X76063Y-51983D01*
X75982Y-52063D01*
X75968Y-52095D01*
X74519Y-52095D01*
X74519Y-51574D01*
X74508Y-51370D01*
X74452Y-51233D01*
X74361Y-51210D01*
X74290Y-51281D01*
X74290Y-51139D01*
X74267Y-51048D01*
X74074Y-50981D01*
X73870Y-50992D01*
X73733Y-51048D01*
X73710Y-51139D01*
X74000Y-51429D01*
X74290Y-51139D01*
X74290Y-51281D01*
X74071Y-51500D01*
X74361Y-51790D01*
X74452Y-51767D01*
X74519Y-51574D01*
X74519Y-52095D01*
X74390Y-52095D01*
X74319Y-52024D01*
X74206Y-51976D01*
X74267Y-51952D01*
X74290Y-51861D01*
X74000Y-51571D01*
X73929Y-51642D01*
X73929Y-51500D01*
X73639Y-51210D01*
X73548Y-51233D01*
X73481Y-51426D01*
X73492Y-51630D01*
X73548Y-51767D01*
X73639Y-51790D01*
X73929Y-51500D01*
X73929Y-51642D01*
X73710Y-51861D01*
X73733Y-51952D01*
X73799Y-51974D01*
X73682Y-52023D01*
X73524Y-52181D01*
X73438Y-52387D01*
X73438Y-52611D01*
X73523Y-52818D01*
X73595Y-52890D01*
X73595Y-53504D01*
X73569Y-53529D01*
X73561Y-53509D01*
X73491Y-53439D01*
X73400Y-53401D01*
X73301Y-53401D01*
X73112Y-53400D01*
X73050Y-53462D01*
X73050Y-53900D01*
X73050Y-53950D01*
X73050Y-54050D01*
X73050Y-54100D01*
X73050Y-54538D01*
X73112Y-54600D01*
X73301Y-54599D01*
X73400Y-54599D01*
X73491Y-54561D01*
X73561Y-54491D01*
X73569Y-54470D01*
X73639Y-54540D01*
X73873Y-54637D01*
X74126Y-54637D01*
X74360Y-54540D01*
X74540Y-54361D01*
X74637Y-54127D01*
X74637Y-53874D01*
X74540Y-53640D01*
X74405Y-53504D01*
X74405Y-52905D01*
X75969Y-52905D01*
X75983Y-52937D01*
X76063Y-53018D01*
X76168Y-53061D01*
X76282Y-53061D01*
X76832Y-53061D01*
X76937Y-53017D01*
X77018Y-52937D01*
X77031Y-52905D01*
X78469Y-52905D01*
X78483Y-52937D01*
X78563Y-53018D01*
X78668Y-53061D01*
X78782Y-53061D01*
X79332Y-53061D01*
X79437Y-53017D01*
X79518Y-52937D01*
X79561Y-52832D01*
X79561Y-57950D01*
X36019Y-57950D01*
X36019Y-35574D01*
X36008Y-35370D01*
X35952Y-35233D01*
X35861Y-35210D01*
X35571Y-35500D01*
X35861Y-35790D01*
X35952Y-35767D01*
X36019Y-35574D01*
X36019Y-57950D01*
X35790Y-57950D01*
X35790Y-35861D01*
X35500Y-35571D01*
X35429Y-35642D01*
X35429Y-35500D01*
X35139Y-35210D01*
X35048Y-35233D01*
X34981Y-35426D01*
X34992Y-35630D01*
X35048Y-35767D01*
X35139Y-35790D01*
X35429Y-35500D01*
X35429Y-35642D01*
X35210Y-35861D01*
X35233Y-35952D01*
X35426Y-36019D01*
X35630Y-36008D01*
X35767Y-35952D01*
X35790Y-35861D01*
X35790Y-57950D01*
X29050Y-57950D01*
X29050Y-27550D01*
X91950Y-27050D01*
X91950Y-57950D01*
M02*
